<svg xmlns="http://www.w3.org/2000/svg" width="78.505" height="105.652" viewBox="0 0 78.505 105.652">
  <g id="noun-accounting-calculator-830085" transform="translate(-23.95 -14.945)">
    <g id="Group_14332" data-name="Group 14332" transform="translate(24 14.996)">
      <path id="Path_10651" data-name="Path 10651" d="M40.3,15a1.508,1.508,0,0,0-1.225,1.508v19.6H31.539A7.556,7.556,0,0,0,24,43.65v69.359a7.556,7.556,0,0,0,7.539,7.539H94.866a7.556,7.556,0,0,0,7.539-7.539V43.65a7.556,7.556,0,0,0-7.539-7.539H87.327V16.51A1.508,1.508,0,0,0,85.82,15H40.586A1.508,1.508,0,0,0,40.3,15Zm1.791,3.016H84.312V54.2H42.094ZM31.539,39.127h7.539V55.713a1.508,1.508,0,0,0,1.508,1.508H85.82a1.508,1.508,0,0,0,1.508-1.508V39.127h7.539A4.481,4.481,0,0,1,99.39,43.65v69.359a4.481,4.481,0,0,1-4.523,4.523H31.539a4.481,4.481,0,0,1-4.523-4.523V43.65A4.481,4.481,0,0,1,31.539,39.127ZM37.57,63.252a6.031,6.031,0,1,0,0,12.062H43.6a6.031,6.031,0,1,0,0-12.062Zm22.617,0a6.031,6.031,0,1,0,0,12.062h6.031a6.031,6.031,0,1,0,0-12.062Zm22.617,0a6.031,6.031,0,0,0,0,12.062h6.031a6.031,6.031,0,1,0,0-12.062ZM37.57,66.267H43.6a3.016,3.016,0,0,1,0,6.031H37.57a3.016,3.016,0,0,1,0-6.031Zm22.617,0h6.031a3.016,3.016,0,0,1,0,6.031H60.187a3.016,3.016,0,1,1,0-6.031Zm22.617,0h6.031a3.016,3.016,0,0,1,0,6.031H82.8a3.016,3.016,0,0,1,0-6.031ZM37.57,81.345a6.031,6.031,0,1,0,0,12.062H43.6a6.031,6.031,0,1,0,0-12.062Zm22.617,0a6.031,6.031,0,1,0,0,12.062h6.031a6.031,6.031,0,1,0,0-12.062Zm28.648,0A6.051,6.051,0,0,0,82.8,87.376V99.439a6.031,6.031,0,0,0,0,12.062h6.031a6.051,6.051,0,0,0,6.031-6.031V87.376A6.051,6.051,0,0,0,88.835,81.345ZM37.57,84.361H43.6a3.016,3.016,0,0,1,0,6.031H37.57a3.016,3.016,0,0,1,0-6.031Zm22.617,0h6.031a3.016,3.016,0,0,1,0,6.031H60.187a3.016,3.016,0,1,1,0-6.031Zm28.648,0a2.976,2.976,0,0,1,3.016,3.016V105.47a2.976,2.976,0,0,1-3.016,3.016H82.8a3.016,3.016,0,0,1,0-6.031h1.508a1.508,1.508,0,0,0,1.508-1.508V87.376A2.976,2.976,0,0,1,88.835,84.361ZM37.57,99.439a6.031,6.031,0,1,0,0,12.062H43.6a6.031,6.031,0,1,0,0-12.062Zm22.617,0a6.031,6.031,0,1,0,0,12.062h6.031a6.031,6.031,0,1,0,0-12.062ZM37.57,102.454H43.6a3.016,3.016,0,0,1,0,6.031H37.57a3.016,3.016,0,0,1,0-6.031Zm22.617,0h6.031a3.016,3.016,0,0,1,0,6.031H60.187a3.016,3.016,0,1,1,0-6.031Z" transform="translate(-24 -14.996)" fill="#1a77e5"/>
      <path id="Path_10651_-_Outline" data-name="Path 10651 - Outline" d="M40.444,14.946c.049,0,.1,0,.146.007H85.82a1.56,1.56,0,0,1,1.558,1.558V36.061h7.489a7.6,7.6,0,0,1,7.589,7.589v69.359a7.6,7.6,0,0,1-7.589,7.589H31.539a7.6,7.6,0,0,1-7.589-7.589V43.65a7.6,7.6,0,0,1,7.589-7.589h7.489V16.51a1.554,1.554,0,0,1,1.266-1.557C40.347,14.948,40.4,14.946,40.444,14.946ZM94.866,120.5a7.5,7.5,0,0,0,7.489-7.489V43.65a7.5,7.5,0,0,0-7.489-7.489H87.277V16.51a1.46,1.46,0,0,0-1.458-1.458H40.586a1.479,1.479,0,0,0-.278,0,1.454,1.454,0,0,0-1.18,1.457V36.161H31.539A7.5,7.5,0,0,0,24.05,43.65v69.359a7.5,7.5,0,0,0,7.489,7.489ZM42.044,17.968H84.362V54.255H42.044Zm42.218.1H42.144V54.155H84.262ZM31.539,39.077h7.589V55.713a1.46,1.46,0,0,0,1.458,1.458H85.82a1.46,1.46,0,0,0,1.458-1.458V39.077h7.589A4.525,4.525,0,0,1,99.44,43.65v69.359a4.525,4.525,0,0,1-4.573,4.573H31.539a4.525,4.525,0,0,1-4.573-4.573V43.65A4.525,4.525,0,0,1,31.539,39.077Zm7.489.1H31.539a4.426,4.426,0,0,0-4.473,4.473v69.359a4.426,4.426,0,0,0,4.473,4.473H94.866a4.426,4.426,0,0,0,4.473-4.473V43.65a4.426,4.426,0,0,0-4.473-4.473H87.377V55.713A1.56,1.56,0,0,1,85.82,57.27H40.586a1.56,1.56,0,0,1-1.558-1.558ZM37.57,63.2H43.6a6.081,6.081,0,0,1,0,12.162H37.57a6.081,6.081,0,0,1,0-12.162ZM43.6,75.264a5.981,5.981,0,0,0,0-11.962H37.57a5.981,5.981,0,0,0,0,11.962ZM60.187,63.2h6.031a6.081,6.081,0,0,1,0,12.162H60.187a6.081,6.081,0,0,1,0-12.162Zm6.031,12.062a5.981,5.981,0,0,0,0-11.962H60.187a5.981,5.981,0,0,0,0,11.962ZM82.8,63.2h6.031a6.081,6.081,0,0,1,0,12.162H82.8a6.081,6.081,0,0,1,0-12.162Zm6.031,12.062a5.981,5.981,0,0,0,0-11.962H82.8a5.981,5.981,0,0,0,0,11.962ZM37.57,66.217H43.6a3.066,3.066,0,1,1,0,6.131H37.57a3.066,3.066,0,0,1,0-6.131ZM43.6,72.248a2.966,2.966,0,1,0,0-5.931H37.57a2.966,2.966,0,0,0,0,5.931Zm16.586-6.031h6.031a3.066,3.066,0,0,1,0,6.131H60.187a3.066,3.066,0,1,1,0-6.131Zm6.031,6.031a2.966,2.966,0,1,0,0-5.931H60.187a2.966,2.966,0,1,0,0,5.931ZM82.8,66.217h6.031a3.066,3.066,0,1,1,0,6.131H82.8a3.066,3.066,0,1,1,0-6.131Zm6.031,6.031a2.966,2.966,0,0,0,0-5.931H82.8a2.966,2.966,0,0,0,0,5.931ZM37.57,81.3H43.6a6.081,6.081,0,0,1,0,12.162H37.57a6.081,6.081,0,0,1,0-12.162ZM43.6,93.358a5.981,5.981,0,0,0,0-11.962H37.57a5.981,5.981,0,0,0,0,11.962ZM60.187,81.3h6.031a6.081,6.081,0,0,1,0,12.162H60.187a6.081,6.081,0,0,1,0-12.162Zm6.031,12.062a5.981,5.981,0,0,0,0-11.962H60.187a5.981,5.981,0,0,0,0,11.962ZM88.835,81.3a6.1,6.1,0,0,1,6.081,6.081V105.47a6.1,6.1,0,0,1-6.081,6.081H82.8a6.081,6.081,0,0,1-.05-12.162V87.376A6.1,6.1,0,0,1,88.835,81.3Zm0,30.156a6,6,0,0,0,5.981-5.981V87.376a5.981,5.981,0,0,0-11.962,0V99.489H82.8a5.981,5.981,0,0,0,0,11.962ZM37.57,84.311H43.6a3.066,3.066,0,1,1,0,6.131H37.57a3.066,3.066,0,0,1,0-6.131ZM43.6,90.342a2.966,2.966,0,1,0,0-5.931H37.57a2.966,2.966,0,0,0,0,5.931Zm16.586-6.031h6.031a3.066,3.066,0,0,1,0,6.131H60.187a3.066,3.066,0,1,1,0-6.131Zm6.031,6.031a2.966,2.966,0,1,0,0-5.931H60.187a2.966,2.966,0,1,0,0,5.931Zm22.617-6.031A3.033,3.033,0,0,1,91.9,87.376V105.47a3.033,3.033,0,0,1-3.066,3.066H82.8a3.066,3.066,0,0,1,0-6.131h1.508a1.46,1.46,0,0,0,1.458-1.458V87.376A3.033,3.033,0,0,1,88.835,84.311Zm0,24.125A2.934,2.934,0,0,0,91.8,105.47V87.376a2.966,2.966,0,0,0-5.931,0v13.57a1.56,1.56,0,0,1-1.558,1.558H82.8a2.966,2.966,0,0,0,0,5.931ZM37.57,99.389H43.6a6.081,6.081,0,0,1,0,12.162H37.57a6.081,6.081,0,0,1,0-12.162ZM43.6,111.451a5.981,5.981,0,0,0,0-11.962H37.57a5.981,5.981,0,0,0,0,11.962ZM60.187,99.389h6.031a6.081,6.081,0,0,1,0,12.162H60.187a6.081,6.081,0,0,1,0-12.162Zm6.031,12.062a5.981,5.981,0,0,0,0-11.962H60.187a5.981,5.981,0,0,0,0,11.962ZM37.57,102.4H43.6a3.066,3.066,0,1,1,0,6.131H37.57a3.066,3.066,0,0,1,0-6.131Zm6.031,6.031a2.966,2.966,0,1,0,0-5.931H37.57a2.966,2.966,0,0,0,0,5.931ZM60.187,102.4h6.031a3.066,3.066,0,0,1,0,6.131H60.187a3.066,3.066,0,1,1,0-6.131Zm6.031,6.031a2.966,2.966,0,0,0,0-5.931H60.187a2.966,2.966,0,1,0,0,5.931Z" transform="translate(-24 -14.996)" fill="#1a77e5"/>
    </g>
  </g>
</svg>
