<svg xmlns="http://www.w3.org/2000/svg" width="95.228" height="98.594" viewBox="0 0 95.228 98.594">
  <g id="noun-art-3811855" transform="translate(-3.006 -1.981)">
    <g id="Group_14360" data-name="Group 14360" transform="translate(3.006 1.981)">
      <path id="Path_10671" data-name="Path 10671" d="M83.28,13.474A41.332,41.332,0,0,0,52.148,2.059c-6.462.43-10.482,1.977-12.654,4.87-2.372,3.159-2.027,7.424-1.237,11.332A6.8,6.8,0,0,0,37.2,19.725L14.543,63.566a9.327,9.327,0,0,0-.535,7.422,9.5,9.5,0,0,0,.658,1.419A12.594,12.594,0,0,0,3.735,79.786C1.011,85.816,6.751,98.243,7.413,99.64a1.642,1.642,0,0,0,1.485.935h.009a1.649,1.649,0,0,0,1.484-.956,16,16,0,0,1,8.836-7.386,10.4,10.4,0,0,0,6.937-9.307,9.753,9.753,0,0,0-1.5-5.762,9.592,9.592,0,0,0,1.833-.538,9.317,9.317,0,0,0,5.208-5.3l11.844-30.37a54.4,54.4,0,0,1,.5,7.08A81.551,81.551,0,0,1,40.2,70.093c-2.227,8.059-3.986,14.424-.837,18.863,2.135,3.007,6.2,4.612,12.784,5.051q1.356.089,2.7.09A41.425,41.425,0,0,0,83.279,82.591a47.407,47.407,0,0,0,0-69.116ZM18.127,89.139a19.786,19.786,0,0,0-8.942,6.34C7.24,90.61,5.416,84.042,6.727,81.14a9.273,9.273,0,0,1,8.484-5.449,9.606,9.606,0,0,1,3.967.863,6.321,6.321,0,0,1,3.707,6.209,7.049,7.049,0,0,1-4.758,6.377ZM28.64,70.134a6.136,6.136,0,0,1-8.232,3.372L20.39,73.5l-.014-.005a6.139,6.139,0,0,1-2.917-8.416L40.122,21.228a3.678,3.678,0,0,1,.936-1.149,3.551,3.551,0,0,1,.764-.447c.048-.022.1-.045.145-.064a3.556,3.556,0,0,1,.816-.213c.045-.006.092-.007.137-.011a3.6,3.6,0,0,1,.7.01c.085.009.169.012.254.027a3.619,3.619,0,0,1,.863.253,3.538,3.538,0,0,1,2.083,3.229,3.483,3.483,0,0,1-.249,1.292Zm52.4,10.059A37.938,37.938,0,0,1,52.366,90.73c-5.45-.362-8.827-1.565-10.324-3.675-2.247-3.165-.67-8.866,1.324-16.085,1.766-6.391,3.965-14.344,3.965-22.936A63.3,63.3,0,0,0,45.87,35l3.76-9.65a6.745,6.745,0,0,0,.477-2.493,6.828,6.828,0,0,0-4.026-6.228,6.926,6.926,0,0,0-1.073-.367c-.113-.03-.226-.05-.339-.074a6.845,6.845,0,0,0-.789-.118c-.119-.011-.236-.024-.355-.028a6.822,6.822,0,0,0-.961.03c-.062.006-.124.009-.186.016a6.851,6.851,0,0,0-.993.211c-.047.014-.1.016-.144.031-.581-3.582-.3-5.862.882-7.433,1.533-2.043,4.884-3.209,10.246-3.565a37.961,37.961,0,0,1,28.67,10.537,44.12,44.12,0,0,1,0,64.319Z" transform="translate(-3.006 -1.981)" fill="#1a77e5"/>
      <path id="Path_10672" data-name="Path 10672" d="M48.852,24A9.852,9.852,0,1,0,58.7,33.852,9.852,9.852,0,0,0,48.852,24Zm0,16.42a6.568,6.568,0,1,1,6.568-6.568,6.568,6.568,0,0,1-6.568,6.568Z" transform="translate(20.104 12.156)" fill="#1a77e5"/>
      <path id="Path_10673" data-name="Path 10673" d="M42.21,27.42A8.21,8.21,0,1,0,34,19.21a8.21,8.21,0,0,0,8.21,8.21Zm0-13.136a4.926,4.926,0,1,1-4.926,4.926A4.926,4.926,0,0,1,42.21,14.284Z" transform="translate(16.893 3.81)" fill="#1a77e5"/>
      <path id="Path_10674" data-name="Path 10674" d="M42.21,39a8.21,8.21,0,1,0,8.21,8.21A8.21,8.21,0,0,0,42.21,39Zm0,13.136a4.926,4.926,0,1,1,4.926-4.926A4.926,4.926,0,0,1,42.21,52.136Z" transform="translate(16.893 21.787)" fill="#1a77e5"/>
    </g>
  </g>
</svg>
