<svg xmlns="http://www.w3.org/2000/svg" width="97.631" height="87.854" viewBox="0 0 97.631 87.854">
  <g id="noun-script-2336028" transform="translate(-1.995 -5)">
    <g id="Group_14355" data-name="Group 14355" transform="translate(1.995 5)">
      <g id="Group_14354" data-name="Group 14354">
        <g id="Group_14344" data-name="Group 14344">
          <g id="Group_14343" data-name="Group 14343">
            <g id="Group_14342" data-name="Group 14342">
              <g id="Group_14341" data-name="Group 14341">
                <g id="Group_14340" data-name="Group 14340">
                  <g id="Group_14339" data-name="Group 14339">
                    <g id="Group_14338" data-name="Group 14338">
                      <g id="Group_14333" data-name="Group 14333" transform="translate(30.762 71.251)">
                        <path id="Path_10653" data-name="Path 10653" d="M55.55,65.4H22.53a1.627,1.627,0,0,1-1.212-2.712l2.006-2.244A10.894,10.894,0,0,0,25.5,49.828l3.085-1.033a14.155,14.155,0,0,1-2.444,13.349H51.9a13.689,13.689,0,0,1-2.579-13.349l3.085,1.033A10.318,10.318,0,0,0,54.718,60.4l2.042,2.281A1.627,1.627,0,0,1,55.55,65.4Z" transform="translate(-20.903 -48.795)" fill="#1a77e5"/>
                      </g>
                      <g id="Group_14337" data-name="Group 14337">
                        <g id="Group_14336" data-name="Group 14336">
                          <g id="Group_14334" data-name="Group 14334" transform="translate(0 55.014)">
                            <path id="Path_10654" data-name="Path 10654" d="M94.4,57.111H7.133a5.134,5.134,0,0,1-5.138-5.118V40.442a1.625,1.625,0,0,1,1.627-1.627H97.915a1.625,1.625,0,0,1,1.627,1.627V51.993A5.135,5.135,0,0,1,94.4,57.111ZM5.249,42.069v9.924a1.9,1.9,0,0,0,1.884,1.864H94.4a1.9,1.9,0,0,0,1.884-1.864V42.069Z" transform="translate(-1.995 -38.815)" fill="#1a77e5"/>
                          </g>
                          <g id="Group_14335" data-name="Group 14335">
                            <path id="Path_10655" data-name="Path 10655" d="M99.626,61.56H96.372V10.2A1.969,1.969,0,0,0,94.4,8.254H7.133a1.9,1.9,0,0,0-1.884,1.864V61.56H1.995V10.118A5.134,5.134,0,0,1,7.133,5H94.4a5.215,5.215,0,0,1,5.221,5.131Z" transform="translate(-1.995 -5)" fill="#1a77e5"/>
                          </g>
                        </g>
                      </g>
                    </g>
                  </g>
                </g>
              </g>
            </g>
          </g>
        </g>
        <g id="Group_14353" data-name="Group 14353" transform="translate(19.482 8.763)">
          <g id="Group_14345" data-name="Group 14345" transform="translate(16.051 3.242)">
            <rect id="Rectangle_1347" data-name="Rectangle 1347" width="40.989" height="3.254" fill="#1a77e5"/>
          </g>
          <g id="Group_14346" data-name="Group 14346" transform="translate(16.051 19.416)">
            <rect id="Rectangle_1348" data-name="Rectangle 1348" width="40.989" height="3.254" fill="#1a77e5"/>
          </g>
          <g id="Group_14352" data-name="Group 14352">
            <g id="Group_14350" data-name="Group 14350">
              <g id="Group_14347" data-name="Group 14347">
                <path id="Path_10656" data-name="Path 10656" d="M14.74,10.386l-.77,2.265,6.369,2.6-6.369,2.6.77,2.265L23.824,16.3V14.209Z" transform="translate(-13.97 -10.386)" fill="#1a77e5"/>
              </g>
              <g id="Group_14348" data-name="Group 14348" transform="translate(0 16.173)">
                <path id="Path_10657" data-name="Path 10657" d="M13.97,22.593l6.369,2.6L13.97,27.8l.77,2.266,9.085-3.827V24.152L14.74,20.327Z" transform="translate(-13.97 -20.327)" fill="#1a77e5"/>
              </g>
              <g id="Group_14349" data-name="Group 14349" transform="translate(0 32.348)">
                <path id="Path_10658" data-name="Path 10658" d="M13.97,32.534l6.369,2.6-6.369,2.6.77,2.265,9.085-3.825V34.092L14.74,30.269Z" transform="translate(-13.97 -30.269)" fill="#1a77e5"/>
              </g>
            </g>
            <g id="Group_14351" data-name="Group 14351" transform="translate(16.051 35.59)">
              <rect id="Rectangle_1349" data-name="Rectangle 1349" width="40.989" height="3.254" fill="#1a77e5"/>
            </g>
          </g>
        </g>
      </g>
    </g>
  </g>
</svg>
