<svg xmlns="http://www.w3.org/2000/svg" width="76.766" height="81.212" viewBox="0 0 76.766 81.212">
  <g id="noun-education-5538554" transform="translate(-2.11 -1.505)">
    <g id="Group_14361" data-name="Group 14361" transform="translate(2.11 1.505)">
      <path id="Path_10675" data-name="Path 10675" d="M1243.519,1682.9l.041.041a1.531,1.531,0,0,0-1.1.5l-18.125,20-10.144-10.465a1.546,1.546,0,0,0-.163-.157l0,0h-.04c-.027-.021-.054-.041-.082-.061s-.072-.05-.11-.073h-.041c-.029-.017-.059-.033-.089-.048h-.041c-.03-.015-.062-.028-.093-.04a1.338,1.338,0,0,0-.134-.049l-25.464-7.363a1.533,1.533,0,0,0-1.906,1.852l6.553,25.671a1.528,1.528,0,0,0,.513.81l11.429,11.792-19.015,20.983a1.531,1.531,0,0,0,.1,2.161l16.831,15.261a1.53,1.53,0,0,0,2.161-.1l17.9-19.749,14.883,15.356a9.107,9.107,0,0,0,12.851.2l8.047-7.79a9.1,9.1,0,0,0,.2-12.85l-16.249-16.764,19.246-21.234a1.53,1.53,0,0,0-.106-2.16l-16.832-15.261a1.525,1.525,0,0,0-1.066-.395Zm.175,3.721,14.566,13.2-4,4.414-7.338-6.654-2.056,2.268,7.339,6.655-5.408,5.967-7.339-6.654-2.056,2.268,7.338,6.655-4.566,5.038L1226.805,1706l-.346-.354ZM1189.7,1688.8l3.681,1.067-2.734,2.648Zm7.069,2.05,13.279,3.849-7.557,7.318-7.557,7.316-3.415-13.4Zm16.2,5.274,10.115,10.435a1.558,1.558,0,0,0,.142.178l15.845,16.352a1.548,1.548,0,0,0,.19.163.008.008,0,0,1,0,0l6.323,6.523-16.7,16.178-5.152-5.316a1.4,1.4,0,0,0-.114-.138l-15.845-16.352a1.543,1.543,0,0,0-.146-.129l-11.358-11.72,8.346-8.092Zm-6.284,31.322L1220.4,1741.6l-3.481,3.839-7.339-6.652-2.055,2.268,7.338,6.652-5.408,5.967-7.338-6.652-2.056,2.271,7.339,6.652-4,4.414-14.567-13.2Zm41.036,4.533,2.45,2.528-16.7,16.178-2.453-2.531Zm4.581,4.727,4.016,4.142a5.983,5.983,0,0,1-.134,8.522l-8.029,7.788a6,6,0,0,1-8.537-.13l-4.013-4.142Z" transform="translate(-1185.11 -1682.905)" fill="#1a77e5"/>
    </g>
  </g>
</svg>
