<svg xmlns="http://www.w3.org/2000/svg" width="77.848" height="107.866" viewBox="0 0 77.848 107.866">
  <g id="noun-engineering-5567151" transform="translate(-13.943 -1.4)">
    <path id="Path_10652" data-name="Path 10652" d="M33.52,17.986a1.262,1.262,0,0,1-.894,2.153,1.276,1.276,0,0,1-.894-.371L26.273,14.3a1.26,1.26,0,1,1,1.778-1.785l5.469,5.468ZM15.254,39.118a1.263,1.263,0,0,1,1.261-1.262h7.733a1.262,1.262,0,0,1,0,2.523H16.514A1.262,1.262,0,0,1,15.254,39.118ZM26.273,63.932l5.459-5.465A1.262,1.262,0,0,1,33.52,60.25l-5.469,5.467a1.259,1.259,0,1,1-1.778-1.785Zm53.19,0a1.259,1.259,0,1,1-1.776,1.785l-5.47-5.467A1.262,1.262,0,0,1,74,58.467l5.459,5.465Zm9.759-26.077a1.262,1.262,0,0,1,0,2.523H81.489a1.262,1.262,0,0,1,0-2.523ZM79.464,14.3,74,19.765a1.262,1.262,0,0,1-1.787-1.782l5.47-5.468A1.26,1.26,0,0,1,79.464,14.3ZM52.868,1.5a1.263,1.263,0,0,1,1.261,1.262v7.731a1.261,1.261,0,1,1-2.522,0V2.762A1.263,1.263,0,0,1,52.868,1.5Zm0,16.349A21.516,21.516,0,0,0,39.387,56.127,9.634,9.634,0,0,1,43.1,63.656H51.6V46.022a7.018,7.018,0,1,1,2.522,0V63.66h8.518a9.591,9.591,0,0,1,3.708-7.529A21.516,21.516,0,0,0,52.869,17.852Zm4.358,58.785H48.51a5.408,5.408,0,0,1-5.4-5.224H62.627A5.408,5.408,0,0,1,57.226,76.634ZM52.868,43.612a4.5,4.5,0,1,1,4.5-4.494,4.5,4.5,0,0,1-4.5,4.494ZM43.1,66.184H62.636v2.7H43.1ZM28.834,39.364A23.924,23.924,0,0,0,37.806,58.1a7.214,7.214,0,0,1,2.77,5.784v7.344a7.939,7.939,0,0,0,7.932,7.934h8.716a7.939,7.939,0,0,0,7.932-7.934V63.88A7.217,7.217,0,0,1,67.925,58.1,24.037,24.037,0,1,0,28.832,39.364ZM16.565,71.6V75.6a.915.915,0,0,0,.744.92l6.265,1.26a1.275,1.275,0,0,1,.957.882,29.5,29.5,0,0,0,2.4,5.81,1.256,1.256,0,0,1-.05,1.3L23.354,91.1a.906.906,0,0,0,.12,1.178l7.455,7.455a.906.906,0,0,0,1.172.12l5.321-3.536a1.278,1.278,0,0,1,.695-.209,1.239,1.239,0,0,1,.605.156,29.321,29.321,0,0,0,5.817,2.409,1.284,1.284,0,0,1,.884.957l1.261,6.255a.909.909,0,0,0,.913.75H58.14a.909.909,0,0,0,.913-.75l1.261-6.255a1.284,1.284,0,0,1,.884-.957,29.434,29.434,0,0,0,5.817-2.409,1.261,1.261,0,0,1,1.3.054l5.322,3.536a.9.9,0,0,0,1.171-.12l7.466-7.455a.915.915,0,0,0,.109-1.178l-3.535-5.321a1.258,1.258,0,0,1-.049-1.3,29.5,29.5,0,0,0,2.4-5.81,1.279,1.279,0,0,1,.957-.882l6.265-1.26a.914.914,0,0,0,.744-.92v-4H72.346a19.518,19.518,0,0,1-38.956,0Zm-2.522-1.262V75.6A3.428,3.428,0,0,0,16.812,79l5.53,1.112a31.387,31.387,0,0,0,2.025,4.9L21.25,89.707a3.42,3.42,0,0,0,.437,4.359l7.455,7.455a3.425,3.425,0,0,0,4.359.435l4.7-3.116a31.931,31.931,0,0,0,4.894,2.034l1.122,5.519a3.418,3.418,0,0,0,3.385,2.774H58.14a3.418,3.418,0,0,0,3.385-2.774l1.122-5.519a32.178,32.178,0,0,0,4.894-2.034l4.7,3.117a3.426,3.426,0,0,0,4.359-.437l7.455-7.455a3.42,3.42,0,0,0,.437-4.359l-3.117-4.694a31.486,31.486,0,0,0,2.034-4.9L88.922,79A3.428,3.428,0,0,0,91.691,75.6V70.332a1.262,1.262,0,0,0-1.262-1.262h-19.3a1.262,1.262,0,0,0-1.261,1.262,17,17,0,1,1-33.991,0,1.256,1.256,0,0,0-1.261-1.262h-19.3a1.262,1.262,0,0,0-1.264,1.262Z" fill="#1a77e5" fill-rule="evenodd"/>
    <path id="Path_10652_-_Outline" data-name="Path 10652 - Outline" d="M52.868,1.4h0a1.366,1.366,0,0,1,1.361,1.362v7.731a1.361,1.361,0,0,1-2.722,0V2.762A1.366,1.366,0,0,1,52.868,1.4Zm0,10.254a1.162,1.162,0,0,0,1.161-1.161V2.762a1.161,1.161,0,1,0-2.322,0v7.731A1.162,1.162,0,0,0,52.868,11.654Zm-25.706.394a1.351,1.351,0,0,1,.959.4l5.5,5.5v0a1.362,1.362,0,0,1-1.958,1.894L26.2,14.37a1.359,1.359,0,0,1,.96-2.323Zm6.258,5.977-5.44-5.439a1.16,1.16,0,1,0-1.636,1.643L31.8,19.7a1.162,1.162,0,1,0,1.646-1.641Zm45.129-5.95a1.36,1.36,0,0,1,.987,2.294l-5.461,5.467a1.362,1.362,0,0,1-1.929-1.924l5.47-5.468A1.356,1.356,0,0,1,78.549,12.074ZM73.11,20.036a1.167,1.167,0,0,0,.823-.341l5.46-5.466a1.16,1.16,0,0,0-1.637-1.641l-5.468,5.466a1.162,1.162,0,0,0,.823,1.982ZM52.874,15.221h0A24.135,24.135,0,0,1,67.988,58.174a7.157,7.157,0,0,0-2.732,5.7v7.345a8.051,8.051,0,0,1-8.032,8.034H48.508a8.051,8.051,0,0,1-8.032-8.034V63.88a7.154,7.154,0,0,0-2.732-5.7,24.024,24.024,0,0,1-9.01-18.713l0-.1A24.148,24.148,0,0,1,52.874,15.221Zm4.35,63.837a7.851,7.851,0,0,0,7.832-7.835V63.88a7.357,7.357,0,0,1,2.808-5.862,23.939,23.939,0,0,0-14.988-42.6h0A23.93,23.93,0,0,0,28.932,39.263h0l0,.1a23.824,23.824,0,0,0,8.934,18.654,7.354,7.354,0,0,1,2.808,5.863v7.342a7.851,7.851,0,0,0,7.832,7.834ZM52.941,17.749v0A21.616,21.616,0,0,1,66.413,56.209a9.491,9.491,0,0,0-3.671,7.451v.1H54.024V45.938l.082-.015a6.918,6.918,0,1,0-2.486,0l.082.015V63.756H43v-.1a9.534,9.534,0,0,0-3.67-7.451A21.616,21.616,0,0,1,52.868,17.749Zm9.6,45.811a9.691,9.691,0,0,1,3.746-7.508,21.416,21.416,0,0,0-13.42-38.1H52.8v0a21.416,21.416,0,0,0-13.346,38.1,9.734,9.734,0,0,1,3.744,7.507H51.5V46.1a7.118,7.118,0,1,1,2.722,0V63.56ZM52.871,34.522a4.6,4.6,0,1,1,0,9.191h0a4.6,4.6,0,0,1,0-9.191Zm0,8.991a4.4,4.4,0,1,0-4.393-4.4,4.405,4.405,0,0,0,4.393,4.4Zm36.354-5.757h0a1.362,1.362,0,0,1,0,2.723H81.489a1.362,1.362,0,0,1,0-2.723Zm-7.73,2.523h7.73a1.162,1.162,0,0,0,0-2.323H81.489a1.162,1.162,0,0,0,0,2.323ZM16.514,37.756h7.734a1.362,1.362,0,0,1,0,2.723H16.514a1.361,1.361,0,0,1,0-2.723Zm7.734,2.523a1.162,1.162,0,0,0,0-2.323h-7.73a1.161,1.161,0,0,0,0,2.323ZM32.626,58a1.362,1.362,0,0,1,.964,2.325l-5.469,5.467A1.359,1.359,0,1,1,26.2,63.861L31.662,58.4A1.353,1.353,0,0,1,32.626,58Zm-5.464,7.99a1.161,1.161,0,0,0,.818-.34l5.469-5.467A1.162,1.162,0,0,0,31.8,58.538L26.344,64a1.162,1.162,0,0,0,.818,1.984ZM73.11,58a1.353,1.353,0,0,1,.964.4l5.459,5.465a1.359,1.359,0,1,1-1.918,1.926l-5.47-5.466A1.362,1.362,0,0,1,73.11,58Zm5.465,7.99A1.16,1.16,0,0,0,79.393,64l-5.46-5.466a1.162,1.162,0,1,0-1.646,1.642l5.47,5.467A1.16,1.16,0,0,0,78.575,65.987ZM43,66.084H62.736v2.9H43Zm19.536.2H43.2v2.5H62.536ZM34.617,68.97a1.347,1.347,0,0,1,.959.4,1.365,1.365,0,0,1,.4.965,16.9,16.9,0,0,0,33.791,0,1.364,1.364,0,0,1,1.361-1.362h19.3a1.364,1.364,0,0,1,1.362,1.362V75.6a3.53,3.53,0,0,1-2.85,3.489L83.48,80.2a31.68,31.68,0,0,1-2,4.812l3.085,4.645a3.518,3.518,0,0,1-.45,4.486l-7.454,7.454a3.526,3.526,0,0,1-4.486.449l-4.646-3.084a32.378,32.378,0,0,1-4.8,1.995l-1.11,5.462a3.521,3.521,0,0,1-3.454,2.854h-10.6a3.522,3.522,0,0,1-3.454-2.855L43,100.951a32.127,32.127,0,0,1-4.8-2l-4.646,3.084a3.525,3.525,0,0,1-4.486-.449l-7.454-7.454a3.518,3.518,0,0,1-.449-4.486l3.084-4.644A31.581,31.581,0,0,1,22.265,80.2l-5.472-1.1a3.53,3.53,0,0,1-2.849-3.49V70.336A1.362,1.362,0,0,1,15.3,68.97H34.617ZM52.868,87.428a17.1,17.1,0,0,1-17.1-17.1,1.164,1.164,0,0,0-.338-.823,1.148,1.148,0,0,0-.818-.339v-.1l0,.1h-19.3a1.162,1.162,0,0,0-1.164,1.162V75.6A3.33,3.33,0,0,0,16.831,78.9l5.588,1.124.018.056a31.379,31.379,0,0,0,2.019,4.889l.027.052-3.15,4.743a3.319,3.319,0,0,0,.423,4.232l7.455,7.455a3.325,3.325,0,0,0,4.232.423l4.745-3.149.052.027a31.924,31.924,0,0,0,4.878,2.027l.056.018,1.134,5.577a3.322,3.322,0,0,0,3.258,2.694h10.6a3.321,3.321,0,0,0,3.258-2.693l1.134-5.578.056-.018A32.176,32.176,0,0,0,67.5,98.751l.052-.027,4.744,3.15a3.326,3.326,0,0,0,4.232-.423L83.979,94a3.319,3.319,0,0,0,.425-4.232l-3.15-4.744.027-.052a31.477,31.477,0,0,0,2.027-4.889l.018-.056L88.9,78.9a3.33,3.33,0,0,0,2.689-3.292V70.332a1.163,1.163,0,0,0-1.162-1.162h-19.3a1.164,1.164,0,0,0-1.161,1.162,17.1,17.1,0,0,1-17.1,17.1ZM43.006,71.31H62.73l0,.1a5.508,5.508,0,0,1-5.5,5.32H48.51a5.508,5.508,0,0,1-5.5-5.32Zm19.516.2H43.214a5.308,5.308,0,0,0,5.3,5.024h8.715a5.308,5.308,0,0,0,5.3-5.024ZM16.465,71.5h17.02l.006.094a19.418,19.418,0,0,0,38.756,0l.006-.094H89.266v4.1a1.01,1.01,0,0,1-.825,1.018l-6.263,1.259a1.178,1.178,0,0,0-.881.812,29.647,29.647,0,0,1-2.41,5.829,1.155,1.155,0,0,0,.045,1.2l3.535,5.32a1.011,1.011,0,0,1-.122,1.3L74.879,99.8a1,1,0,0,1-1.3.131L68.26,96.4a1.161,1.161,0,0,0-1.2-.049,29.587,29.587,0,0,1-5.837,2.417,1.184,1.184,0,0,0-.814.882L59.151,105.9a1.007,1.007,0,0,1-.993.83H47.579a1.008,1.008,0,0,1-.993-.833l-1.26-6.253a1.184,1.184,0,0,0-.815-.881,29.471,29.471,0,0,1-5.836-2.417,1.143,1.143,0,0,0-.553-.143,1.178,1.178,0,0,0-.644.193l-5.32,3.536a1,1,0,0,1-.571.178,1.01,1.01,0,0,1-.729-.312L23.4,92.345a1.01,1.01,0,0,1-.131-1.306L26.8,85.725a1.152,1.152,0,0,0,.046-1.2,29.65,29.65,0,0,1-2.411-5.83,1.174,1.174,0,0,0-.882-.812l-6.263-1.259a1.012,1.012,0,0,1-.824-1.02Zm16.832.2H16.665V75.6a.813.813,0,0,0,.663.822l6.266,1.26a1.375,1.375,0,0,1,1.033.951,29.449,29.449,0,0,0,2.394,5.791,1.351,1.351,0,0,1-.055,1.407l-3.528,5.316a.811.811,0,0,0,.1,1.05L31,99.658a.811.811,0,0,0,.586.252.8.8,0,0,0,.459-.144l5.322-3.537a1.375,1.375,0,0,1,.75-.226,1.347,1.347,0,0,1,.654.168,29.272,29.272,0,0,0,5.8,2.4,1.384,1.384,0,0,1,.954,1.032l1.261,6.256a.809.809,0,0,0,.8.67H58.158a.808.808,0,0,0,.8-.668L60.215,99.6a1.385,1.385,0,0,1,.953-1.033,29.389,29.389,0,0,0,5.8-2.4,1.361,1.361,0,0,1,1.4.058l5.322,3.536a.8.8,0,0,0,1.043-.105L82.2,92.2a.813.813,0,0,0,.1-1.05L78.764,85.83a1.354,1.354,0,0,1-.053-1.408,29.446,29.446,0,0,0,2.393-5.79,1.379,1.379,0,0,1,1.032-.951l6.266-1.26a.811.811,0,0,0,.664-.819V71.7H72.44a19.618,19.618,0,0,1-39.143,0Z" fill="#1a77e5"/>
  </g>
</svg>
