<svg xmlns="http://www.w3.org/2000/svg" width="103.739" height="96.856" viewBox="0 0 103.739 96.856">
  <g id="noun-language-3811875" transform="translate(-2 -3.98)">
    <g id="Group_14358" data-name="Group 14358" transform="translate(2 3.98)">
      <path id="Path_10665" data-name="Path 10665" d="M74.189,25.356a38.012,38.012,0,1,0-67,35.805v15.47a1.728,1.728,0,0,0,2.048,1.7l13.307-2.5a37.6,37.6,0,0,0,11.01,3.67A38.015,38.015,0,0,0,85.195,96.579l13.308,2.5a1.728,1.728,0,0,0,2.048-1.7V81.909A37.946,37.946,0,0,0,74.189,25.356ZM34.964,76.251A34.216,34.216,0,0,1,23.639,72.5a1.738,1.738,0,0,0-.822-.207,1.7,1.7,0,0,0-.319.03L10.645,74.547V60.69A1.732,1.732,0,0,0,10.4,59.8,34.562,34.562,0,1,1,71.458,27.617a34,34,0,0,1,3.159,14.434A34.618,34.618,0,0,1,40.038,76.631a34.143,34.143,0,0,1-5.07-.38Zm62.374,4.3a1.732,1.732,0,0,0-.245.888V95.294L85.24,93.069a1.755,1.755,0,0,0-1.14.176A34.586,34.586,0,0,1,37.713,80.016c.773.049,1.545.073,2.325.073A38.08,38.08,0,0,0,78.075,42.052c0-1-.051-1.98-.125-2.96-.016-.207-.031-.417-.05-.624-.088-.955-.207-1.9-.366-2.84-.026-.15-.058-.3-.086-.45q-.237-1.3-.565-2.579c-.037-.144-.069-.289-.107-.432-.248-.921-.536-1.831-.855-2.732-.029-.081-.047-.164-.076-.244A34.519,34.519,0,0,1,97.338,80.55Z" transform="translate(-2 -3.98)" fill="#1a77e5"/>
      <path id="Path_10666" data-name="Path 10666" d="M23.038,20A1.729,1.729,0,0,0,19.9,20L11.029,39.016a1.729,1.729,0,1,0,3.134,1.462l1.969-4.22c.053,0,.1.031.153.031H26.658c.054,0,.1-.026.153-.031l1.969,4.22a1.729,1.729,0,1,0,3.134-1.462ZM17.731,32.832l3.741-8.015,3.741,8.015Z" transform="translate(4.464 6.969)" fill="#1a77e5"/>
      <path id="Path_10667" data-name="Path 10667" d="M26.731,40.748a1.724,1.724,0,0,0,1.079-.378,24.463,24.463,0,0,0,7.564-10.413,24.463,24.463,0,0,0,7.564,10.413,1.73,1.73,0,0,0,2.161-2.7,22.167,22.167,0,0,1-7.839-14.21H42.29a1.729,1.729,0,0,0,0-3.458H28.458a1.729,1.729,0,0,0,0,3.458h5.036a22.053,22.053,0,0,1-7.846,14.21,1.729,1.729,0,0,0,1.082,3.08Z" transform="translate(14.766 7.698)" fill="#1a77e5"/>
    </g>
  </g>
</svg>
