<svg xmlns="http://www.w3.org/2000/svg" width="91.938" height="79.069" viewBox="0 0 91.938 79.069">
  <g id="noun-law-3464431" transform="translate(-8.699 -14.872)">
    <path id="Path_10677" data-name="Path 10677" d="M68.423,38.218a4.168,4.168,0,0,0,1.3.214,4.506,4.506,0,0,0,3.211-1.341l1.127-1.126a4.574,4.574,0,0,0,0-6.444L61.135,16.51a4.506,4.506,0,0,0-6.41,0L53.6,17.637a4.585,4.585,0,0,0-1.127,4.506L32.691,42.228a4.6,4.6,0,0,0-1.307-.214,4.506,4.506,0,0,0-3.2,1.341l-1.127,1.127a4.607,4.607,0,0,0,0,6.455L39.979,63.947a4.506,4.506,0,0,0,6.41,0l1.127-1.127a4.619,4.619,0,0,0,1.126-4.506l5.633-5.734L87.991,86.263a5.914,5.914,0,0,0,4.224,1.757h0a5.892,5.892,0,0,0,4.236-1.78,6.106,6.106,0,0,0,0-8.6L62.768,43.963ZM55.232,19.191l1.127-1.127a2.271,2.271,0,0,1,3.211,0L72.411,31.132a2.321,2.321,0,0,1,0,3.278h0l-1.127,1.127a2.253,2.253,0,0,1-3.211,0L55.232,22.47a2.343,2.343,0,0,1,0-3.278ZM45.871,61.255h0l-1.127,1.127a2.253,2.253,0,0,1-3.211,0L28.692,49.325a2.343,2.343,0,0,1,0-3.278l1.127-1.126a2.244,2.244,0,0,1,3.211,0L45.871,57.977A2.321,2.321,0,0,1,45.871,61.255ZM47.437,56.3,34.662,43.434l19.06-19.286L66.441,37.024Zm47.4,22.891a3.853,3.853,0,0,1,0,5.418,3.684,3.684,0,0,1-2.647,1.127h0a3.7,3.7,0,0,1-2.636-1.126L55.84,50.947l5.328-5.385Z" transform="translate(2.118 0)" fill="#1a77e5"/>
    <path id="Path_10677_-_Outline" data-name="Path 10677 - Outline" d="M57.93,14.872A4.837,4.837,0,0,1,61.348,16.3L74.269,29.31a4.874,4.874,0,0,1,0,6.866L73.141,37.3a4.835,4.835,0,0,1-3.419,1.428h-.005a4.46,4.46,0,0,1-1.208-.173l-5.318,5.4L96.663,77.433a6.406,6.406,0,0,1,0,9.019,6.225,6.225,0,0,1-4.433,1.869H92.2a6.253,6.253,0,0,1-4.42-1.847l-33.5-33.467-5.3,5.4A4.929,4.929,0,0,1,47.73,63.03L46.6,64.159a4.806,4.806,0,0,1-6.835,0L26.845,51.148a4.907,4.907,0,0,1,0-6.876l1.128-1.128a4.836,4.836,0,0,1,3.411-1.428h.006a4.893,4.893,0,0,1,1.214.175L52.137,22.055a4.889,4.889,0,0,1,1.247-4.629L54.513,16.3A4.835,4.835,0,0,1,57.93,14.872ZM69.72,38.132a4.234,4.234,0,0,0,3-1.251l1.128-1.128a4.285,4.285,0,0,0,0-6.02L60.922,16.722a4.206,4.206,0,0,0-5.984,0l-1.128,1.128a4.287,4.287,0,0,0-1.051,4.209l.05.169L32.775,42.57l-.175-.056a4.293,4.293,0,0,0-1.218-.2A4.233,4.233,0,0,0,28.4,43.566L27.27,44.693a4.307,4.307,0,0,0,0,6.033l12.92,13.01a4.206,4.206,0,0,0,5.984,0L47.3,62.609a4.325,4.325,0,0,0,1.05-4.21L48.3,58.23l5.967-6.075,33.93,33.9a5.651,5.651,0,0,0,3.995,1.67h.034a5.623,5.623,0,0,0,4-1.689,5.806,5.806,0,0,0,0-8.175L62.346,43.965l6-6.091.177.059A3.862,3.862,0,0,0,69.72,38.132ZM57.971,17.1a2.57,2.57,0,0,1,1.811.753L72.625,30.922a2.624,2.624,0,0,1,0,3.7L71.5,35.749a2.553,2.553,0,0,1-3.636,0L55.018,22.68a2.643,2.643,0,0,1,0-3.7l1.129-1.129a2.57,2.57,0,0,1,1.81-.753ZM69.679,35.909a1.965,1.965,0,0,0,1.392-.583L72.2,34.2a2.024,2.024,0,0,0,0-2.854L59.355,18.275a1.965,1.965,0,0,0-1.384-.575H57.96a1.968,1.968,0,0,0-1.389.576L55.444,19.4a2.054,2.054,0,0,0,0,2.856L68.288,35.327A1.965,1.965,0,0,0,69.679,35.909ZM53.723,23.721l13.14,13.3-19.425,19.7L34.24,43.434Zm12.3,13.3-12.3-12.449L35.084,43.433,47.436,55.872Zm-34.6,6.921a2.57,2.57,0,0,1,1.826.766L46.085,57.766a2.624,2.624,0,0,1,0,3.7l-1.127,1.127a2.553,2.553,0,0,1-3.636,0L28.478,49.536a2.643,2.643,0,0,1,0-3.7l1.129-1.129A2.567,2.567,0,0,1,31.416,43.945ZM43.139,62.754a1.965,1.965,0,0,0,1.392-.583l1.128-1.128a2.024,2.024,0,0,0,0-2.854L32.815,45.131a1.944,1.944,0,0,0-2.782,0L28.9,46.259a2.054,2.054,0,0,0,0,2.856L41.748,62.171A1.965,1.965,0,0,0,43.139,62.754ZM61.167,45.138,95.052,78.977a4.153,4.153,0,0,1,0,5.842,4,4,0,0,1-2.86,1.216h0a4.018,4.018,0,0,1-2.848-1.216L55.417,50.949Zm31.026,40.3a3.4,3.4,0,0,0,2.43-1.035,3.566,3.566,0,0,0,0-5L61.17,45.988l-4.906,4.958L89.772,84.4A3.415,3.415,0,0,0,92.194,85.434Z" transform="translate(2.118 0)" fill="#1a77e5"/>
    <path id="Path_10678" data-name="Path 10678" d="M10.127,86.981h57.26a1.127,1.127,0,0,0,1.127-1.127V80.413a4.179,4.179,0,0,0-4.168-4.179H61.135V72.009a4.179,4.179,0,0,0-4.168-4.179H20.547a4.179,4.179,0,0,0-4.168,4.179v4.269H13.168A4.179,4.179,0,0,0,9,80.413v5.4a1.127,1.127,0,0,0,1.127,1.172Zm8.505-14.971a1.926,1.926,0,0,1,1.915-1.926h36.42a1.926,1.926,0,0,1,1.915,1.926v4.269H18.632Zm-7.379,8.4a1.926,1.926,0,0,1,1.915-1.926H64.345a1.926,1.926,0,0,1,1.915,1.926v4.269H11.253Z" transform="translate(0 6.661)" fill="#1a77e5"/>
    <path id="Path_10678_-_Outline" data-name="Path 10678 - Outline" d="M67.387,87.281H10.126A1.427,1.427,0,0,1,8.7,85.8v-5.39a4.479,4.479,0,0,1,4.467-4.434h2.911V72.009a4.487,4.487,0,0,1,4.467-4.479H56.967a4.487,4.487,0,0,1,4.468,4.479v3.924h2.911a4.487,4.487,0,0,1,4.468,4.479v5.441A1.428,1.428,0,0,1,67.387,87.281Zm-54.219-10.7A3.879,3.879,0,0,0,9.3,80.416v5.4a.827.827,0,0,0,.826.86v0h57.26a.827.827,0,0,0,.826-.826V80.413a3.886,3.886,0,0,0-3.869-3.879h-3.51V72.009a3.886,3.886,0,0,0-3.869-3.879H20.547a3.886,3.886,0,0,0-3.868,3.879v4.569Zm53.392,8.4H10.953V80.413a2.232,2.232,0,0,1,2.213-2.226h51.18a2.232,2.232,0,0,1,2.213,2.226Zm-55.007-.6H65.96V80.413a1.63,1.63,0,0,0-1.615-1.626H13.168a1.63,1.63,0,0,0-1.615,1.626Zm47.628-7.8H18.332V72.009a2.232,2.232,0,0,1,2.213-2.226H56.968a2.232,2.232,0,0,1,2.213,2.226Zm-40.25-.6h39.65V72.009a1.63,1.63,0,0,0-1.615-1.626H20.547a1.63,1.63,0,0,0-1.615,1.626Z" transform="translate(0 6.661)" fill="#1a77e5"/>
  </g>
</svg>
