<svg xmlns="http://www.w3.org/2000/svg" width="109.686" height="87.313" viewBox="0 0 109.686 87.313">
  <g id="noun-marketing-6057631" transform="translate(-5.01 -14.187)">
    <path id="Path_10676" data-name="Path 10676" d="M64.743,69.047,85.8,51.37V20.692a3.41,3.41,0,0,0-3.4-3.4H11.515a3.4,3.4,0,0,0-3.4,3.4v50.1a3.4,3.4,0,0,0,3.4,3.395H53.93c2.776-2.809,7.184-3.858,10.812-5.139h0ZM57.978,50,40.861,59.881a4.912,4.912,0,0,1-7.381-4.257V35.86A4.916,4.916,0,0,1,40.855,31.6l17.123,9.882a4.916,4.916,0,0,1,0,8.515Zm-1.554-2.684L39.249,57.232a1.809,1.809,0,0,1-2.66-1.609V35.858a1.81,1.81,0,0,1,2.72-1.576l17.115,9.886a1.811,1.811,0,0,1,0,3.146Zm32.484,4.238a13.811,13.811,0,0,1,3.939,4.44,74.887,74.887,0,0,1,9.177,25.993c.5,4.129-.072,7.042-1.825,7.82a2.511,2.511,0,0,1-.979.206l-25.21-.368,3.243,8.427a1.553,1.553,0,0,1-.885,2.13l-2.912,1.028a4.947,4.947,0,0,1-6.179-2.69L64.8,92.1c-5.51,1.385-11.674-1.135-13.637-6.692a10.427,10.427,0,0,1,.55-8.111h-40.2a6.527,6.527,0,0,1-6.5-6.5v-50.1a6.53,6.53,0,0,1,6.5-6.5H82.4a6.52,6.52,0,0,1,6.5,6.5V51.553h0ZM54.089,84.374C51.455,76.913,59.455,74.205,64.568,72.4l5.2,14.713c-5.21,1.839-13.025,4.76-15.673-2.739h0Zm33.45-30.32c-.822.1-.173,4.006-.1,4.565a50.281,50.281,0,0,0,1.325,6.6A9.2,9.2,0,0,1,91.9,66.632a6.915,6.915,0,0,1,2.753,7.8,9.253,9.253,0,0,1-1.5,3.178,49.6,49.6,0,0,0,3.006,5.73c.394.63,2.08,3.562,2.884,3.573.262-.274.2-1.977-.11-4.561a71.775,71.775,0,0,0-8.727-24.718,14.672,14.672,0,0,0-2.671-3.577h0Zm25.554,22.113a1.55,1.55,0,0,1,.146,3.1l-7.346.349a1.55,1.55,0,0,1-.146-3.1l7.346-.349ZM99.53,56.585l5.937-4.341a1.551,1.551,0,0,0-1.835-2.5L97.7,54.084a1.551,1.551,0,0,0,1.833,2.5h0ZM102.4,68.279l6.935-2.449a1.552,1.552,0,0,0-1.032-2.927l-6.935,2.449a1.552,1.552,0,0,0,1.032,2.927ZM84.35,58.985a73.573,73.573,0,0,0,9.178,25.993q.644,1.031,1.293,1.872l-21.974-.322L67.334,70.913,84.181,56.747q.026,1.046.169,2.238h0Zm7.237,14.879c.02-.066.038-.133.054-.2a3.828,3.828,0,0,0-1.526-4.494c-.082-.059-.166-.113-.25-.167q.786,2.456,1.721,4.861h0ZM70.841,90.026l-3.1,1.095,2.426,6.3a1.855,1.855,0,0,0,2.258.88l1.41-.5-2.993-7.777Z" transform="translate(0 0)" fill="#1a77e5" fill-rule="evenodd"/>
  </g>
</svg>
