<svg xmlns="http://www.w3.org/2000/svg" width="90" height="85.803" viewBox="0 0 90 85.803">
  <g id="noun-medical-suitcase-3075620" transform="translate(-5 -7.099)">
    <g id="Group_14357" data-name="Group 14357">
      <g id="Group_14356" data-name="Group 14356">
        <path id="Path_10659" data-name="Path 10659" d="M55.086,48.277V37.834H44.919V48.277a1.453,1.453,0,0,1-1.452,1.452H33.011V59.914H43.468a1.452,1.452,0,0,1,1.452,1.452V71.809H55.087V61.365a1.453,1.453,0,0,1,1.452-1.452H66.98V49.729H56.537A1.452,1.452,0,0,1,55.086,48.277Z" fill="none"/>
        <path id="Path_10660" data-name="Path 10660" d="M57.8,14.08H42.724a7.342,7.342,0,0,0-5.665,2.653H63.47A7.358,7.358,0,0,0,57.8,14.08Z" fill="none"/>
        <path id="Path_10661" data-name="Path 10661" d="M80.331,19.636H70.3a1.452,1.452,0,0,1-1.4-1.079A11.5,11.5,0,0,0,57.8,10H42.724a11.5,11.5,0,0,0-11.093,8.555,1.452,1.452,0,0,1-1.4,1.079H19.678A11.79,11.79,0,0,0,7.9,31.414V78.228A11.786,11.786,0,0,0,19.678,90H80.332A11.782,11.782,0,0,0,92.1,78.228V31.414A11.787,11.787,0,0,0,80.331,19.636ZM33.177,17.642a10.255,10.255,0,0,1,9.547-6.465H57.8a10.282,10.282,0,0,1,9.554,6.462,1.452,1.452,0,0,1-1.345,2H34.524a1.452,1.452,0,0,1-1.347-1.994ZM69.884,61.365a1.453,1.453,0,0,1-1.452,1.452H57.989V73.26a1.453,1.453,0,0,1-1.452,1.452H43.467a1.452,1.452,0,0,1-1.452-1.452V62.817H31.559a1.452,1.452,0,0,1-1.452-1.452V48.277a1.453,1.453,0,0,1,1.452-1.452H42.016V36.383a1.453,1.453,0,0,1,1.452-1.452h13.07a1.452,1.452,0,0,1,1.452,1.452V46.826H68.433a1.452,1.452,0,0,1,1.452,1.452V61.365Z" fill="none"/>
        <path id="Path_10662" data-name="Path 10662" d="M34.524,19.636H66.01a1.452,1.452,0,0,0,1.345-2A10.278,10.278,0,0,0,57.8,11.177H42.724a10.257,10.257,0,0,0-9.547,6.465,1.452,1.452,0,0,0,1.347,1.994Zm8.2-5.556H57.8a7.358,7.358,0,0,1,5.668,2.653H37.058A7.344,7.344,0,0,1,42.724,14.08Z" fill="#1a77e5"/>
        <path id="Path_10663" data-name="Path 10663" d="M68.432,46.826H57.989V36.383a1.453,1.453,0,0,0-1.452-1.452H43.467a1.452,1.452,0,0,0-1.452,1.452V46.826H31.559a1.452,1.452,0,0,0-1.452,1.452V61.366a1.453,1.453,0,0,0,1.452,1.452H42.016V73.26a1.453,1.453,0,0,0,1.452,1.452h13.07A1.452,1.452,0,0,0,57.99,73.26V62.817H68.433a1.452,1.452,0,0,0,1.452-1.452V48.277A1.453,1.453,0,0,0,68.432,46.826ZM66.98,59.914H56.537a1.452,1.452,0,0,0-1.452,1.452V71.809H44.919V61.365a1.453,1.453,0,0,0-1.452-1.452H33.011V49.729H43.468a1.452,1.452,0,0,0,1.452-1.452V37.834H55.087V48.277a1.453,1.453,0,0,0,1.452,1.452H66.98Z" fill="#1a77e5"/>
        <path id="Path_10664" data-name="Path 10664" d="M80.331,16.733H71.368A14.407,14.407,0,0,0,57.8,7.1H42.724a14.405,14.405,0,0,0-13.566,9.634H19.679A14.7,14.7,0,0,0,5,31.414V78.228A14.692,14.692,0,0,0,19.678,92.9H80.332A14.687,14.687,0,0,0,95,78.228V31.414A14.691,14.691,0,0,0,80.331,16.733ZM92.1,78.228A11.781,11.781,0,0,1,80.331,90H19.678A11.786,11.786,0,0,1,7.9,78.228V31.414A11.79,11.79,0,0,1,19.678,19.636h10.55a1.452,1.452,0,0,0,1.4-1.079A11.5,11.5,0,0,1,42.724,10H57.8a11.5,11.5,0,0,1,11.093,8.555,1.452,1.452,0,0,0,1.4,1.079H80.332A11.786,11.786,0,0,1,92.1,31.414V78.228Z" fill="#1a77e5"/>
      </g>
    </g>
  </g>
</svg>
