<svg xmlns="http://www.w3.org/2000/svg" width="177" height="177" viewBox="0 0 177 177">
  <g id="Group_14331" data-name="Group 14331" transform="translate(-777 -1502)">
    <path id="Path_10649" data-name="Path 10649" d="M88.5,0A88.5,88.5,0,1,1,0,88.5,88.5,88.5,0,0,1,88.5,0Z" transform="translate(777 1502)" fill="#f5f5f5"/>
    <g id="noun-document-6161849" transform="translate(813.302 1535.055)">
      <path id="Path_10571" data-name="Path 10571" d="M66.75,42.1H86.014a.891.891,0,0,0,.632-1.507L66.037,20a.875.875,0,0,0-1.507.616V39.883a2.22,2.22,0,0,0,2.22,2.22Z" transform="translate(12.953 -15.078)" fill="#71b3f5"/>
      <path id="Path_10572" data-name="Path 10572" d="M84.811,50.593a8.927,8.927,0,0,1-8.927-8.927V20.019A3.143,3.143,0,0,0,72.74,16.86H48.259A12.848,12.848,0,0,0,35.41,29.725v73.234A12.848,12.848,0,0,0,48.259,115.92h48.4A12.848,12.848,0,0,0,109.5,102.958V53.752a3.143,3.143,0,0,0-3.143-3.24Z" transform="translate(-5.108 -16.86)" fill="#71b3f5"/>
      <path id="Path_10573" data-name="Path 10573" d="M39.605,122.283a15.133,15.133,0,0,1-15-13.351L16.809,43.006A15.133,15.133,0,0,1,30.143,26.22l4.666-.551a3.484,3.484,0,1,1,.826,6.918l-4.682.567A8.1,8.1,0,0,0,23.824,42.2l7.793,65.927a8.1,8.1,0,0,0,8.976,7.21l4.942-.583a3.491,3.491,0,1,1,.81,6.935l-4.861.583a17.249,17.249,0,0,1-1.879.016Z" transform="translate(-16.707 -11.412)"/>
    </g>
  </g>
</svg>
