<svg xmlns="http://www.w3.org/2000/svg" width="59.42" height="57.013" viewBox="0 0 59.42 57.013">
  <g id="noun-medal-1196238" transform="translate(-1.46 -1.877)">
    <g id="Group_14325" data-name="Group 14325" transform="translate(1.96 2.377)">
      <g id="Group_14324" data-name="Group 14324">
        <path id="Path_10606" data-name="Path 10606" d="M57.742,24.987a9.7,9.7,0,0,1-1.775-2.674,10.161,10.161,0,0,1-.163-3.354c.1-1.917.207-4.09-1-5.757s-3.34-2.249-5.208-2.749a10.093,10.093,0,0,1-3.1-1.17A9.971,9.971,0,0,1,44.452,6.72C43.4,5.088,42.2,3.237,40.2,2.586c-1.743-.559-3.849.1-5.72.823a10.238,10.238,0,0,1-3.311.9,10.238,10.238,0,0,1-3.311-.9c-1.874-.716-3.98-1.382-5.72-.823-2,.652-3.2,2.5-4.256,4.134a9.936,9.936,0,0,1-2.036,2.56,9.993,9.993,0,0,1-3.1,1.172c-1.865.5-3.98,1.071-5.2,2.752-1.21,1.661-1.1,3.837-1,5.754a10.159,10.159,0,0,1-.16,3.354A9.743,9.743,0,0,1,4.6,24.987C3.362,26.505,1.96,28.228,1.96,30.372s1.4,3.863,2.636,5.385A9.7,9.7,0,0,1,6.37,38.43a10.161,10.161,0,0,1,.163,3.354c-.1,1.917-.207,4.09,1,5.757s3.34,2.249,5.208,2.749a10.093,10.093,0,0,1,3.1,1.17,9.971,9.971,0,0,1,2.039,2.563c1.056,1.632,2.252,3.482,4.253,4.134,1.737.556,3.846-.111,5.72-.823a10.313,10.313,0,0,1,3.311-.9,10.238,10.238,0,0,1,3.311.9,12.047,12.047,0,0,0,4.189,1.056,4.938,4.938,0,0,0,1.527-.233c2-.652,3.2-2.5,4.256-4.134a9.879,9.879,0,0,1,2.039-2.56,9.936,9.936,0,0,1,3.1-1.172c1.865-.5,3.98-1.068,5.2-2.749,1.21-1.661,1.1-3.837,1-5.757a10.152,10.152,0,0,1,.163-3.354,9.743,9.743,0,0,1,1.775-2.674c1.236-1.516,2.639-3.238,2.639-5.385S58.978,26.508,57.742,24.987Zm-2.258,8.934a11.793,11.793,0,0,0-2.287,3.61,12.321,12.321,0,0,0-.3,4.4c.079,1.577.154,3.066-.451,3.9-.617.849-2.068,1.239-3.6,1.65a12.1,12.1,0,0,0-4.061,1.632,12.014,12.014,0,0,0-2.77,3.334c-.87,1.344-1.69,2.612-2.711,2.947-.893.3-2.307-.212-3.782-.774a12.344,12.344,0,0,0-4.346-1.091,12.4,12.4,0,0,0-4.346,1.088c-1.475.559-2.883,1.071-3.785.774-1.021-.332-1.842-1.6-2.711-2.947a11.977,11.977,0,0,0-2.77-3.337A12.153,12.153,0,0,0,13.5,47.478c-1.536-.413-2.988-.8-3.607-1.65-.605-.832-.532-2.324-.451-3.9a12.259,12.259,0,0,0-.3-4.4A11.866,11.866,0,0,0,6.85,33.915c-1.015-1.251-1.981-2.435-1.981-3.543s.966-2.292,1.984-3.549a11.793,11.793,0,0,0,2.287-3.61,12.321,12.321,0,0,0,.3-4.4c-.079-1.577-.154-3.066.451-3.9.617-.849,2.068-1.239,3.6-1.65a12.1,12.1,0,0,0,4.061-1.632A12.014,12.014,0,0,0,20.329,8.3c.867-1.341,1.687-2.61,2.711-2.944.893-.3,2.307.209,3.782.774a12.4,12.4,0,0,0,4.346,1.088,12.4,12.4,0,0,0,4.346-1.088C36.99,5.565,38.4,5.059,39.3,5.352c1.021.332,1.842,1.6,2.711,2.947a12.014,12.014,0,0,0,2.77,3.334,12.153,12.153,0,0,0,4.061,1.629c1.536.413,2.988.8,3.607,1.65.605.832.532,2.324.451,3.9a12.259,12.259,0,0,0,.3,4.4,11.866,11.866,0,0,0,2.284,3.613c1.021,1.254,1.984,2.438,1.984,3.546S56.5,32.664,55.484,33.921Z" transform="translate(-1.96 -2.377)"/>
        <path id="Path_10606_-_Outline" data-name="Path 10606 - Outline" d="M38.77,1.877h0a5.181,5.181,0,0,1,1.581.232c2.17.707,3.417,2.634,4.517,4.334l0,0a9.716,9.716,0,0,0,1.914,2.431,9.951,9.951,0,0,0,2.936,1.09c1.949.522,4.157,1.114,5.483,2.938,1.312,1.808,1.2,4.071,1.1,6.069v.015a9.867,9.867,0,0,0,.139,3.168,9.572,9.572,0,0,0,1.686,2.512c1.289,1.586,2.748,3.382,2.751,5.7s-1.462,4.121-2.751,5.7a9.581,9.581,0,0,0-1.687,2.513,9.859,9.859,0,0,0-.139,3.165v.017c.1,2,.213,4.267-1.1,6.069-1.329,1.824-3.533,2.416-5.478,2.937a9.664,9.664,0,0,0-2.94,1.093A9.6,9.6,0,0,0,44.872,54.3c-1.1,1.7-2.344,3.629-4.521,4.338a5.432,5.432,0,0,1-1.682.257A12.554,12.554,0,0,1,34.3,57.8a9.931,9.931,0,0,0-3.132-.863,9.92,9.92,0,0,0-3.1.851l-.032.012a13.077,13.077,0,0,1-4.479,1.062,5.156,5.156,0,0,1-1.571-.23C19.815,57.927,18.569,56,17.468,54.3l0,0a9.715,9.715,0,0,0-1.914-2.431,9.951,9.951,0,0,0-2.936-1.09c-1.949-.522-4.157-1.114-5.483-2.938-1.312-1.808-1.2-4.071-1.1-6.069v-.015a9.868,9.868,0,0,0-.139-3.168,9.572,9.572,0,0,0-1.686-2.512c-1.289-1.586-2.748-3.382-2.748-5.7s1.461-4.117,2.751-5.7A9.583,9.583,0,0,0,5.9,22.158a9.988,9.988,0,0,0,.136-3.173v-.008c-.1-2-.214-4.265,1.1-6.067,1.331-1.828,3.535-2.419,5.479-2.941a9.722,9.722,0,0,0,2.939-1.094,9.664,9.664,0,0,0,1.911-2.427c1.1-1.7,2.344-3.629,4.521-4.338a5.161,5.161,0,0,1,1.579-.233,13.007,13.007,0,0,1,4.474,1.064,9.934,9.934,0,0,0,3.132.863A9.932,9.932,0,0,0,34.3,2.942,13.1,13.1,0,0,1,38.77,1.877Zm-.1,56.013a4.434,4.434,0,0,0,1.373-.208c1.839-.6,2.982-2.368,3.991-3.93A10.153,10.153,0,0,1,46.2,51.059a10.215,10.215,0,0,1,3.269-1.251c1.786-.479,3.809-1.022,4.93-2.561,1.1-1.516,1-3.6.909-5.43V41.8a10.419,10.419,0,0,1,.187-3.526,10.122,10.122,0,0,1,1.863-2.835c1.184-1.451,2.526-3.1,2.526-5.069s-1.344-3.614-2.527-5.07a9.941,9.941,0,0,1-1.862-2.834,10.431,10.431,0,0,1-.187-3.527v-.015c.092-1.832.2-3.909-.909-5.431-1.118-1.538-3.144-2.081-4.932-2.56A10.508,10.508,0,0,1,46.2,9.688a10.248,10.248,0,0,1-2.165-2.7l0-.006c-1.01-1.561-2.154-3.329-3.985-3.925a4.183,4.183,0,0,0-1.274-.184,12.244,12.244,0,0,0-4.111,1,10.521,10.521,0,0,1-3.49.929,10.519,10.519,0,0,1-3.49-.929,12.361,12.361,0,0,0-4.116-1,4.164,4.164,0,0,0-1.271.184c-1.838.6-2.981,2.368-3.989,3.929a10.208,10.208,0,0,1-2.162,2.693,10.276,10.276,0,0,1-3.27,1.252c-1.784.479-3.807,1.021-4.93,2.564-1.1,1.516-1,3.594-.909,5.428v.007a10.559,10.559,0,0,1-.183,3.533A10.12,10.12,0,0,1,4.986,25.3C3.8,26.757,2.46,28.406,2.46,30.372s1.341,3.614,2.524,5.07a9.941,9.941,0,0,1,1.862,2.834A10.432,10.432,0,0,1,7.033,41.8v.014c-.092,1.832-.2,3.909.909,5.431,1.118,1.538,3.144,2.081,4.932,2.56a10.508,10.508,0,0,1,3.265,1.247,10.248,10.248,0,0,1,2.165,2.7l0,.006c1.01,1.561,2.154,3.329,3.985,3.925a4.158,4.158,0,0,0,1.264.182,12.23,12.23,0,0,0,4.123-1l.032-.012a10.5,10.5,0,0,1,3.457-.917,10.519,10.519,0,0,1,3.49.929A11.634,11.634,0,0,0,38.669,57.891ZM23.648,4.765A10.4,10.4,0,0,1,27,5.659a12.034,12.034,0,0,0,4.168,1.055,12.034,12.034,0,0,0,4.168-1.055,10.484,10.484,0,0,1,3.356-.893,2.465,2.465,0,0,1,.762.111c1.187.385,2.052,1.723,2.969,3.139l.008.012a11.625,11.625,0,0,0,2.644,3.2,11.774,11.774,0,0,0,3.9,1.55l.024.006c1.614.434,3.138.844,3.858,1.831s.632,2.554.546,4.219a11.87,11.87,0,0,0,.279,4.222,11.385,11.385,0,0,0,2.169,3.419l.027.034c1.077,1.323,2.1,2.573,2.1,3.861s-1,2.513-2.067,3.825l-.035.043a11.426,11.426,0,0,0-2.2,3.446,11.878,11.878,0,0,0-.28,4.194l0,.039c.083,1.663.161,3.234-.546,4.207-.723,1-2.256,1.4-3.88,1.839a11.717,11.717,0,0,0-3.9,1.553,11.623,11.623,0,0,0-2.644,3.2c-.92,1.421-1.787,2.761-2.976,3.151a2.412,2.412,0,0,1-.764.113,10.521,10.521,0,0,1-3.352-.9,11.947,11.947,0,0,0-4.169-1.058A12.034,12.034,0,0,0,27,55.084a10.444,10.444,0,0,1-3.356.894,2.447,2.447,0,0,1-.764-.112c-1.185-.385-2.051-1.722-2.967-3.138L19.9,52.7a11.575,11.575,0,0,0-2.636-3.192,11.774,11.774,0,0,0-3.9-1.551l-.024-.006c-1.614-.434-3.138-.844-3.858-1.831s-.632-2.554-.546-4.219a11.87,11.87,0,0,0-.279-4.222,11.385,11.385,0,0,0-2.169-3.419l-.043-.053c-1.068-1.316-2.077-2.559-2.077-3.839s1.007-2.521,2.074-3.837l.026-.032a11.426,11.426,0,0,0,2.2-3.446,11.878,11.878,0,0,0,.28-4.194l0-.039c-.083-1.663-.161-3.234.546-4.207.723-1,2.256-1.4,3.88-1.839a11.717,11.717,0,0,0,3.9-1.553,11.624,11.624,0,0,0,2.644-3.2c.917-1.419,1.783-2.758,2.976-3.148A2.43,2.43,0,0,1,23.648,4.765Zm7.52,2.95a12.773,12.773,0,0,1-4.525-1.121,9.959,9.959,0,0,0-3-.829,1.444,1.444,0,0,0-.45.062c-.859.281-1.631,1.476-2.449,2.741a12.356,12.356,0,0,1-2.9,3.467,12.452,12.452,0,0,1-4.226,1.711c-1.384.37-2.815.752-3.33,1.46-.5.688-.427,2.153-.357,3.569l0,.039a12.613,12.613,0,0,1-.328,4.552,12.154,12.154,0,0,1-2.372,3.768l-.024.029c-.952,1.175-1.851,2.284-1.851,3.207s.9,2.034,1.853,3.208l.044.054a12.112,12.112,0,0,1,2.344,3.74,12.61,12.61,0,0,1,.326,4.581c-.073,1.418-.149,2.884.356,3.579S12.163,46.6,13.6,46.989l.023.006A12.506,12.506,0,0,1,17.85,48.7a12.3,12.3,0,0,1,2.888,3.458l.015.024c.817,1.263,1.589,2.455,2.438,2.731a1.46,1.46,0,0,0,.453.063,10.351,10.351,0,0,0,3-.829,12.769,12.769,0,0,1,4.523-1.12,12.685,12.685,0,0,1,4.526,1.124,9.928,9.928,0,0,0,2.994.829,1.427,1.427,0,0,0,.449-.063c.856-.28,1.63-1.476,2.449-2.742a12.363,12.363,0,0,1,2.9-3.469A12.452,12.452,0,0,1,48.71,47c1.384-.37,2.815-.752,3.33-1.46.5-.688.427-2.153.357-3.569l0-.039a12.613,12.613,0,0,1,.328-4.552,12.154,12.154,0,0,1,2.372-3.768l.033-.041c.948-1.17,1.844-2.276,1.844-3.2s-.909-2.049-1.872-3.231l-.028-.034a12.112,12.112,0,0,1-2.344-3.741,12.609,12.609,0,0,1-.326-4.581c.073-1.418.149-2.884-.356-3.579s-1.871-1.068-3.31-1.455l-.023-.006a12.506,12.506,0,0,1-4.225-1.708,12.356,12.356,0,0,1-2.9-3.467l-.007-.012C40.767,7.3,39.995,6.1,39.146,5.828a1.476,1.476,0,0,0-.453-.062,9.882,9.882,0,0,0-3,.827A12.771,12.771,0,0,1,31.169,7.714Z" transform="translate(-1.96 -2.377)"/>
        <path id="Path_10607" data-name="Path 10607" d="M37.047,21.046A1.455,1.455,0,0,0,35.592,22.5,13.092,13.092,0,1,1,22.5,9.409a1.455,1.455,0,1,0,0-2.909,16,16,0,1,0,16,16A1.455,1.455,0,0,0,37.047,21.046Z" transform="translate(6.708 5.494)"/>
        <path id="Path_10607_-_Outline" data-name="Path 10607 - Outline" d="M22.5,6a1.955,1.955,0,1,1,0,3.909A12.592,12.592,0,1,0,35.092,22.5,1.955,1.955,0,1,1,39,22.5,16.5,16.5,0,1,1,22.5,6Zm0,30.092a13.592,13.592,0,0,1,0-27.183A.955.955,0,1,0,22.5,7,15.5,15.5,0,1,0,38,22.5a.955.955,0,1,0-1.909,0A13.607,13.607,0,0,1,22.5,36.092Z" transform="translate(6.708 5.494)"/>
        <path id="Path_10608" data-name="Path 10608" d="M12.983,17.652a1.454,1.454,0,1,0-2.057,2.057l2.909,2.909a1.454,1.454,0,0,0,1.027.428c.035,0,.067,0,.1,0a1.457,1.457,0,0,0,1.059-.579l8.728-11.637a1.454,1.454,0,1,0-2.327-1.743l-7.721,10.3Z" transform="translate(14.346 9.312)"/>
        <path id="Path_10608_-_Outline" data-name="Path 10608 - Outline" d="M14.862,23.546a1.967,1.967,0,0,1-1.381-.574l-2.909-2.909A1.954,1.954,0,0,1,13.337,17.3l1.315,1.32,7.375-9.834A1.971,1.971,0,0,1,23.594,8a1.954,1.954,0,0,1,1.559,3.127L16.426,22.764A1.961,1.961,0,0,1,15,23.541C14.949,23.546,14.9,23.546,14.862,23.546Zm-2.908-5.819a.954.954,0,0,0-.675,1.629l2.909,2.909a.96.96,0,0,0,.673.281h.066a.961.961,0,0,0,.7-.38l8.728-11.637a.956.956,0,0,0-.191-1.337A.94.94,0,0,0,23.594,9a.953.953,0,0,0-.768.385L14.759,20.142l-2.13-2.137A.947.947,0,0,0,11.955,17.727Z" transform="translate(14.346 9.312)"/>
      </g>
    </g>
  </g>
</svg>
