<svg xmlns="http://www.w3.org/2000/svg" width="59.625" height="57.038" viewBox="0 0 59.625 57.038">
  <g id="noun-communication-1254983" transform="translate(-35.875 -6.064)">
    <g id="Group_14327" data-name="Group 14327">
      <path id="Path_10620" data-name="Path 10620" d="M65.688,6.564c-16.163,0-29.313,12.361-29.313,27.556a26.213,26.213,0,0,0,5,15.364L39.4,60.844a1.5,1.5,0,0,0,1.882,1.7l12.2-3.4a30.53,30.53,0,0,0,12.206,2.528C81.851,61.676,95,49.315,95,34.12S81.851,6.564,65.688,6.564Zm0,52.11A27.58,27.58,0,0,1,54.15,56.16a1.45,1.45,0,0,0-1.3.047L42.764,59.018l1.679-9.649a1.5,1.5,0,0,0-.28-1.16,23.281,23.281,0,0,1-4.786-14.088c0-13.539,11.8-24.554,26.311-24.554S92,20.582,92,34.121,80.195,58.674,65.688,58.674Z"/>
      <path id="Path_10620_-_Outline" data-name="Path 10620 - Outline" d="M65.688,6.064C82.126,6.064,95.5,18.65,95.5,34.12a26.41,26.41,0,0,1-2.351,10.921,27.989,27.989,0,0,1-6.4,8.919,29.937,29.937,0,0,1-9.476,6.011,31.164,31.164,0,0,1-11.582,2.2h0a31.032,31.032,0,0,1-12.241-2.5l-12.03,3.353a2,2,0,0,1-2.509-2.27L40.847,49.6A26.732,26.732,0,0,1,35.875,34.12C35.875,18.65,49.249,6.064,65.688,6.064Zm0,55.111A30.167,30.167,0,0,0,76.9,59.042a28.941,28.941,0,0,0,9.161-5.811,26.993,26.993,0,0,0,6.175-8.6A25.416,25.416,0,0,0,94.5,34.12C94.5,19.2,81.575,7.064,65.688,7.064S36.875,19.2,36.875,34.12a25.753,25.753,0,0,0,4.906,15.073l.122.17L39.892,60.93a1,1,0,0,0,1.255,1.136l12.37-3.447.162.07a30.042,30.042,0,0,0,12.007,2.487Zm0-52.108c14.783,0,26.81,11.239,26.81,25.054S80.471,59.174,65.688,59.174a28.076,28.076,0,0,1-11.746-2.559.926.926,0,0,0-.389-.086.984.984,0,0,0-.463.118l-.049.026-10.9,3.038L43.95,49.283a1,1,0,0,0-.186-.773,23.777,23.777,0,0,1-4.887-14.389C38.877,20.306,50.9,9.067,65.688,9.067Zm0,49.107c14.232,0,25.81-10.79,25.81-24.053S79.92,10.067,65.688,10.067,39.877,20.858,39.877,34.121a22.784,22.784,0,0,0,4.685,13.787,2,2,0,0,1,.373,1.547l-1.543,8.869,9.277-2.585a1.985,1.985,0,0,1,.884-.21,1.918,1.918,0,0,1,.806.176A27.082,27.082,0,0,0,65.688,58.174Z"/>
      <path id="Path_10621" data-name="Path 10621" d="M51.582,30.965a3.124,3.124,0,1,0,3.124,3.124A3.127,3.127,0,0,0,51.582,30.965Z"/>
      <path id="Path_10621_-_Outline" data-name="Path 10621 - Outline" d="M51.582,30.465a3.624,3.624,0,1,1-3.624,3.624A3.628,3.628,0,0,1,51.582,30.465Zm0,6.248a2.624,2.624,0,1,0-2.624-2.624A2.627,2.627,0,0,0,51.582,36.713Z"/>
      <path id="Path_10622" data-name="Path 10622" d="M65.688,30.965a3.124,3.124,0,1,0,3.124,3.124A3.127,3.127,0,0,0,65.688,30.965Z"/>
      <path id="Path_10622_-_Outline" data-name="Path 10622 - Outline" d="M65.688,30.465a3.624,3.624,0,1,1-3.624,3.624A3.628,3.628,0,0,1,65.688,30.465Zm0,6.248a2.624,2.624,0,1,0-2.624-2.624A2.627,2.627,0,0,0,65.688,36.713Z"/>
      <path id="Path_10623" data-name="Path 10623" d="M79.794,30.965a3.124,3.124,0,1,0,3.124,3.124A3.128,3.128,0,0,0,79.794,30.965Z"/>
      <path id="Path_10623_-_Outline" data-name="Path 10623 - Outline" d="M79.794,30.465a3.624,3.624,0,1,1-3.624,3.624A3.628,3.628,0,0,1,79.794,30.465Zm0,6.248a2.624,2.624,0,1,0-2.624-2.624A2.627,2.627,0,0,0,79.794,36.713Z"/>
    </g>
  </g>
</svg>
