<svg xmlns="http://www.w3.org/2000/svg" width="177" height="177" viewBox="0 0 177 177">
  <g id="Group_14362" data-name="Group 14362" transform="translate(-1273 -1502)">
    <path id="Path_10650" data-name="Path 10650" d="M88.5,0A88.5,88.5,0,1,1,0,88.5,88.5,88.5,0,0,1,88.5,0Z" transform="translate(1273 1502)" fill="#f5f5f5"/>
    <g id="noun-communication-6161917" transform="translate(1297.375 1547.443)">
      <rect id="Rectangle_1259" data-name="Rectangle 1259" width="83.472" height="62.401" rx="3.384" transform="translate(0 12.505) rotate(-8.616)" fill="#71b3f5"/>
      <path id="Path_10565" data-name="Path 10565" d="M27.35,68.234,29.34,81.3a2.272,2.272,0,0,0,3.814,1.31L52.44,64.37" transform="translate(-0.443 2.875)" fill="#71b3f5"/>
      <path id="Path_10566" data-name="Path 10566" d="M85.131,67.953,84.086,78.931a1.907,1.907,0,0,1-3.118,1.277L64.07,65.93" transform="translate(23.73 3.902)"/>
      <path id="Path_10567" data-name="Path 10567" d="M106.788,37.977,71.781,34.66l5.688,37.461a9.419,9.419,0,0,1-7.877,10.713L54.12,85.172l47.71,4.56a4.676,4.676,0,0,0,5.157-4.2l4.063-42.469a4.676,4.676,0,0,0-4.262-5.091Z" transform="translate(17.18 -16.684)"/>
    </g>
  </g>
</svg>
