<svg xmlns="http://www.w3.org/2000/svg" width="49.409" height="43.186" viewBox="0 0 49.409 43.186">
  <g id="noun-download-5958954" transform="translate(-8.356 -13.601)">
    <path id="Path_10680" data-name="Path 10680" d="M23.709,37.775a1.369,1.369,0,0,1,1.875-2l6.108,5.736V14.97a1.369,1.369,0,1,1,2.737,0V41.515l6.108-5.735a1.369,1.369,0,0,1,1.875,2L34,45.676c-.026.025-.056.043-.084.065a1.339,1.339,0,0,1-.108.083,1.325,1.325,0,0,1-.124.068c-.036.018-.069.039-.107.053a1.305,1.305,0,0,1-.155.048c-.032.009-.062.021-.095.027a1.31,1.31,0,0,1-.529,0c-.03-.006-.058-.017-.087-.025a1.342,1.342,0,0,1-.164-.051c-.034-.014-.065-.033-.1-.049a1.312,1.312,0,0,1-.133-.072c-.035-.023-.066-.05-.1-.076s-.063-.044-.092-.071ZM56.4,35.455a1.369,1.369,0,0,0-1.369,1.369V49.839a4.214,4.214,0,0,1-4.209,4.209H15.3a4.214,4.214,0,0,1-4.209-4.209V36.824a1.369,1.369,0,0,0-2.738,0V49.839A6.955,6.955,0,0,0,15.3,56.787H50.817a6.955,6.955,0,0,0,6.947-6.947V36.824A1.369,1.369,0,0,0,56.4,35.455Z" fill="#1a77e5"/>
  </g>
</svg>
