<svg xmlns="http://www.w3.org/2000/svg" width="55.549" height="51.783" viewBox="0 0 55.549 51.783">
  <g id="noun-certified-5896514" transform="translate(-64.25 -77.25)">
    <path id="Path_10645" data-name="Path 10645" d="M117.826,81.656a7.916,7.916,0,0,0-5.045-3.54,35.521,35.521,0,0,0-8.51-.866h-.019l-16.734.1H87.45c-5.671.3-9.308,1.236-11.118,5.1-1.327,2.835-1.517,7.1-1.544,13.737-3.685.361-6.5,1.212-8.251,3.617-1.764,2.428-2.174,6.1-2.287,11.618v.017l.012,2.549v.029c.174,7.063.921,11.03,4.525,13.117a9.55,9.55,0,0,0,1.74.775l.026.009c3.317,1.111,8.253,1.112,16.165,1.112H97.291c10.916,0,16.4,0,19.452-3.056s3.056-8.536,3.056-19.452V99.717C119.8,90.173,119.8,84.917,117.826,81.656ZM67.159,113.963l-.012-2.5c.1-4.81.424-8.153,1.734-9.957.975-1.343,2.684-2.057,5.9-2.4v7.447c0,13.046-.156,16.894-3.809,18.439a6.179,6.179,0,0,1-.734-.356c-2.163-1.253-2.911-3.846-3.081-10.668Zm49.743-7.438c0,9.8,0,15.194-2.209,17.4s-7.606,2.209-17.4,2.209H86.716c-5.126,0-9.047,0-11.934-.313a9.561,9.561,0,0,0,2.209-4.693c.688-3.261.688-7.764.688-14.582V97.765a1.426,1.426,0,0,0,.016-.335c0-.046-.009-.093-.016-.139.012-6.867.129-11.162,1.275-13.61.926-1.976,2.574-3.11,8.616-3.436l16.662-.1c7.125.146,9.828.878,11.116,3.008,1.554,2.57,1.554,7.836,1.554,16.562v6.808Z"/>
    <path id="Path_10646" data-name="Path 10646" d="M222.744,289.539l-5.041,5.041-2.163-2.163a1.448,1.448,0,0,0-2.048,2.048l3.187,3.187a1.448,1.448,0,0,0,2.048,0l6.065-6.065a1.448,1.448,0,1,0-2.048-2.048Z" transform="translate(-127.262 -181.177)"/>
    <path id="Path_10647" data-name="Path 10647" d="M227.041,168.12h-23.6a1.448,1.448,0,1,0,0,2.9h23.6a1.448,1.448,0,0,0,0-2.9Z" transform="translate(-117.789 -77.708)"/>
    <path id="Path_10648" data-name="Path 10648" d="M227.041,216.12h-23.6a1.448,1.448,0,0,0,0,2.9h23.6a1.448,1.448,0,0,0,0-2.9Z" transform="translate(-117.789 -118.755)"/>
  </g>
</svg>
