<svg xmlns="http://www.w3.org/2000/svg" width="854.012" height="638.739" viewBox="0 0 854.012 638.739">
  <g id="Group_14296" data-name="Group 14296" transform="translate(-960 -308.281)">
    <path id="Path_10574" data-name="Path 10574" d="M31.767,59.49c15.513-2.362,63.778-7.618,113.766,20.323a178.442,178.442,0,0,1,68.055,68.225,177.824,177.824,0,0,1,55.712-65.1C322.927,45,380.831,50.041,396.579,51.935V148.08c-79.547-.234-142.473,29.346-182.608,101.189-40.007-71.545-102.423-101.231-182.2-101.146Z" transform="translate(913.485 721.673) rotate(-19)" fill="#a2d4f8"/>
    <path id="Path_10575" data-name="Path 10575" d="M31.767,52.4A35.552,35.552,0,0,1,68.382,70.235,35.81,35.81,0,0,1,79.6,57.125c10.8-7.641,22.46-6.625,25.631-6.244V70.243C89.213,70.2,76.541,76.153,68.459,90.62,60.4,76.213,47.833,70.235,31.767,70.252Z" transform="translate(1740.03 430.373) rotate(25)" fill="#a2d4f8"/>
    <path id="Path_10576" data-name="Path 10576" d="M31.767,51.406a15.711,15.711,0,0,1,16.181,7.88,15.825,15.825,0,0,1,4.958-5.793,16.487,16.487,0,0,1,11.327-2.759v8.556c-7.079-.021-12.679,2.612-16.251,9-3.56-6.367-9.115-9.009-16.215-9Z" transform="translate(1469.328 343.709) rotate(-20)" fill="#a2d4f8"/>
    <path id="Intersection_1" data-name="Intersection 1" d="M3249.536,881h-3.947l-.106,0h-.019l-.212,0h-.023l-.109,0h-.106l-.125,0-.113,0-.12,0-.119,0-.115,0h-.008l-.229,0h0l-.233,0h0c-1.553-.027-3.094-.065-4.641-.116l.033-1c3.2.1,6.45.158,9.66.158.766,0,1.542,0,2.307-.009l.008,1-.782.005-.446,0h-.551Zm13.721-1.344c3.969-.193,7.985-.469,11.934-.823l.089,1q-5.953.532-11.974.824Zm-38.49.349h-.008l-.1-.009h-.014l-.105-.009h-.005l-.222-.019-.021,0-.085-.007-.031,0-.076-.006-.034,0-.09-.008h-.016l-.1-.009-.038,0-.068-.005-.042,0-.066-.006-.041,0-.072-.005-.036,0-.1-.009-.043,0-.063-.005-.047,0-.058-.005-.05,0-.055,0-.051,0-.054-.005-.093-.008-.054,0-.053,0-.05,0-.056-.005-.049,0-.056,0-.052,0-.1-.01-.044,0-.058-.005-.047,0-.058-.005-.048,0-.054,0-.054,0-.052-.005-.1-.009-.049,0-.057,0-.049,0-.058-.006-.048,0-.058-.006-.047,0-.085-.008-.043,0-.077-.007-.042,0-.062-.006-.048,0-.058-.005-.048,0-.075-.007-.027,0-.1-.01-.035,0-.07-.006-.042,0-.066-.006-.04,0-.079-.007-.026,0-.1-.011-.028,0-.077-.007-.039,0-.068-.007-.041,0-.07-.007-.033,0-.106-.01h-.005l-.1-.01-.026,0-.078-.008-.036,0-.075-.007-.032,0-.091-.009h-.015l-.105-.011-.029,0-.077-.007-.037,0-.073-.008-.032,0-.089-.009-.017,0-.11-.012h-.007l-.1-.01-.031,0-.079-.008-.03,0-.083-.008-.024,0-.214-.023-.029,0-.079-.009-.031,0-.077-.008-.033,0-.088-.009-.017,0-.1-.011-.037,0-.069-.007-.041,0-.064-.007-.044,0-.065-.007-.042,0-.085-.009-.067-.007-.046,0-.059-.007-.044,0-.063-.006-.035,0-.067-.007-.022,0-.15-.017-.02,0-.075-.008-.022,0-.079-.009-.015,0q-.646-.07-1.292-.145l.115-.994c3.94.453,7.947.831,11.91,1.122l-.074,1C3226.472,880.142,3225.623,880.076,3224.768,880Zm62.309-2.482c3.936-.517,7.913-1.121,11.819-1.8l.171.985c-.411.071-.833.144-1.246.213h0q-1.8.3-3.6.585h0q-3.5.545-7.011,1.007Zm-87.342-.676h-.007l-.108-.019h0l-.224-.039h0l-.1-.017-.024,0-.085-.014-.022,0-.1-.016-.008,0-.213-.037-.031-.005-.073-.013-.036-.006-.069-.012-.038-.007-.072-.013-.032-.005-.1-.017-.042-.007-.062-.011-.047-.009-.053-.009-.052-.009-.051-.009-.054-.01-.045-.007-.111-.02-.038-.007-.061-.011-.04-.006-.062-.012-.038-.006-.063-.012-.035-.006-.236-.042-.019,0-.066-.013-.036-.006-.067-.012-.029-.005-.072-.013-.02,0-.247-.045-.017,0-.073-.013-.027-.005-.073-.013-.022,0-.075-.014-.018,0-.24-.043-.03-.005-.065-.012-.039-.007-.063-.012-.033-.006-.067-.013-.011,0-.148-.027-.031-.006-.062-.012-.04-.007-.058-.011-.042-.008-.06-.011-.049-.009-.05-.009-.1-.018-.042-.008-.064-.012-.041-.007-.064-.013-.04-.007-.07-.013-.033-.006-.094-.017-.009,0-.107-.02-.013,0-.094-.018-.02,0-.089-.017-.017,0-.1-.02h0c-.892-.169-1.79-.344-2.679-.522l.2-.98c3.889.777,7.849,1.482,11.77,2.1l-.156.987C3202.23,877.264,3200.988,877.06,3199.734,876.847Zm110.9-3.41c3.88-.84,7.793-1.772,11.633-2.772l.252.968q-2.714.706-5.447,1.362h0l-.537.129-.013,0-.083.019-.01,0-.083.02-.009,0-.257.061-.012,0-.073.017-.029.006-.069.016-.027.007-.071.016-.018,0-.238.055-.029.007-.061.014-.042.01-.058.013-.043.01-.055.013-.051.012-.084.02-.061.013-.049.012-.051.012-.052.012-.052.013-.049.011-.052.013-.05.011-.065.015-.039.009-.1.022-.034.008-.067.015-.039.009-.066.015-.038.008-.075.018-.023.005-.212.048-.011,0-.093.022-.021,0-.09.021-.014,0-.433.1h0c-.807.182-1.628.364-2.439.539Zm-133.222-1.309h-.006l-.084-.022-.012,0-.082-.021-.009,0-.232-.059-.042-.011-.053-.013-.051-.013-.047-.013-.058-.014-.042-.011-.068-.017-.032-.009-.1-.025-.017,0-.085-.022-.027-.007-.077-.02-.028-.007-.083-.022-.018,0-.319-.083h0q-3.757-.972-7.473-2.042l.276-.961c3.813,1.1,7.7,2.129,11.559,3.068l-.237.971Q3178.685,872.45,3177.412,872.128Zm156.361-4.715c3.8-1.158,7.617-2.412,11.362-3.727l.332.943q-5.65,1.984-11.4,3.74ZM3145.6,862.095l.355-.934c3.709,1.41,7.5,2.761,11.262,4.016l-.317.949Q3151.2,864.224,3145.6,862.095Zm210.73-2.606c3.686-1.469,7.391-3.037,11.013-4.657l.409.913q-.909.406-1.822.808l-.011,0-.087.039-.014.005-.084.037-.016.007-.088.039-.01,0-.1.042-.013.005-.082.036-.031.014-.062.027-.04.018-.054.023-.042.018-.053.023-.042.018-.067.03-.025.011-.09.039-.045.02-.049.022-.051.022-.039.017-.055.024-.04.017-.055.023-.032.014-.212.092-.024.01-.063.028-.028.012-.064.028-.026.011-.067.029-.021.009-.071.031h0l-.25.108-.009,0-.07.03-.023.011-.069.029-.019.008-.073.031-.008,0-.33.141-.012.005-.076.031-.014.006-.072.031-.021.009-.319.135-.017.007-.068.03-.022.009-.067.029-.026.011-.066.029-.017.007-.221.093-.03.013-.059.024-.035.015-.056.023-.039.016-.056.023-.037.016-.054.023-.046.019-.073.031-.064.027-.044.018-.05.022-.045.019-.052.022-.042.018-.058.024-.034.014-.074.031-.021.009-.2.082-.014.006-.084.035-.02.008-.08.032-.019.008-.085.036-.012,0q-1.958.814-3.929,1.6ZM3133.085,857l0,0-.086-.038-.033-.014-.058-.025-.045-.019-.048-.021-.046-.021-.044-.019-.3-.131-.017-.007-.075-.032-.011,0-.079-.035h0q-1.886-.828-3.757-1.68l-.01,0-.073-.033-.019-.008-.067-.031-.028-.013-.063-.029-.023-.011-.2-.093-.041-.02-.045-.021-.05-.023-.042-.019-.056-.026-.037-.016-.066-.031-.025-.011-.2-.09h0l-.1-.045-.005,0-.094-.043-.007,0q-1.114-.514-2.229-1.039v-1.106c3.254,1.542,6.569,3.036,9.87,4.451l-.394.92C3134.011,857.4,3133.55,857.2,3133.085,857Zm-.849-.37h0Zm245.92-6.9c3.551-1.769,7.115-3.638,10.59-5.554l.483.877q-3.484,1.92-7.027,3.747h0l-.078.04-.011.005-.075.039-.011.005-.074.039-.007,0-.153.079-.009,0-.056.029-.035.018-.049.025-.046.023-.043.023-.049.024-.042.022-.061.031-.028.014-.19.1-.005,0-.087.045-.015.008-.085.043-.006,0c-.794.4-1.585.8-2.382,1.2Zm20.943-11.54c3.393-2.056,6.79-4.212,10.1-6.407l.552.833-.027.019-.037.024-.052.034-.032.022-.067.044-.019.013-.087.058-.012.008-.073.049-.023.015-.065.043-.022.015-.069.045-.016.011-.083.056,0,0-.272.178-.006,0-.083.056-.006,0q-4.485,2.95-9.074,5.731Zm19.921-13.225c3.212-2.329,6.421-4.756,9.535-7.216l.62.785q-.6.474-1.2.945l0,0-.079.062-.01.008-.074.058-.012.009-.081.063h0l-.168.131-.02.014-.059.047-.031.023-.051.04-.035.027-.04.031-.043.033-.037.029-.042.032-.04.031-.087.068-.026.021-.053.041-.025.02-.055.042-.023.018-.053.041-.026.021-.056.043-.014.012-.284.219,0,0-.067.053-.01.006-.067.053-.005,0q-1.819,1.4-3.659,2.77h0l-.445.331-.009.006-.066.049-.011.008-.066.049-.012.009-.292.217h0l-.068.049-.012.01-.06.044-.022.016-.058.043-.02.014-.059.043-.017.013-.2.149-.011.008-.056.041-.028.021-.053.039-.025.019-.055.04-.026.019-.055.041-.022.016-.187.138-.024.018-.054.04-.026.019-.051.037-.031.023-.051.038-.028.02-.052.038-.025.019-.12.087-.012.009-.044.031-.037.027-.044.032-.04.029-.043.031-.037.027-.045.032-.04.029-.042.031-.041.03-.042.03-.078.057-.033.024-.042.03Zm18.768-14.818c3.01-2.584,6.009-5.267,8.913-7.973l.681.732c-.744.695-1.481,1.374-2.234,2.061l-.005,0c-.026.025-.044.04-.071.066l-.011.01-.063.058-.019.016-.064.059-.013.011-.073.067-.041.037-.032.03-.05.045-.021.019-.054.049-.02.018-.056.05-.009.008q-2.873,2.61-5.816,5.142l-.012.011-.057.049-.021.018-.051.044-.03.025-.044.039-.04.033-.036.031,0,0Zm17.491-16.3c2.79-2.822,5.558-5.742,8.229-8.676l.74.673q-.568.624-1.14,1.245l-.062.068,0,0-.061.067,0,0-.24.259-.016.018-.049.052-.017.019-.048.051-.023.024-.044.049-.023.025-.044.046c-.005.007-.023.026-.029.032l-.08.086-.022.023-.039.041-.031.034-.034.036-.038.04c-.01.012-.021.023-.031.034l-.038.041-.031.033-.039.041-.031.034-.052.056-.015.016-.069.075-.02.022-.051.055-.021.022-.05.054-.021.023-.052.056-.019.02-.055.059-.015.016-.217.232-.008.008-.065.069-.011.011-.065.069-.006.007-.069.074,0,0-.3.314-.006.006q-2.394,2.542-4.854,5.03Zm16.1-17.682c2.55-3.042,5.07-6.179,7.492-9.321l.792.61c-.217.282-.427.554-.645.835l-.01.012-.056.072-.011.013-.052.068-.014.018-.054.069-.01.013c-.045.057-.085.108-.13.166l-.013.016-.049.063-.025.032-.035.046c-.011.013-.02.025-.031.039l-.031.041-.033.042-.027.035-.035.044c-.005.007-.018.024-.024.032l-.143.184-.011.013c-.016.02-.032.04-.047.06l-.014.018-.046.058-.014.018-.048.06-.01.013c-.094.121-.188.24-.283.36l-.058.073v0q-1.423,1.8-2.871,3.585l-.058.072,0,0-.288.354-.009.011-.049.059-.014.018-.046.056-.02.024-.041.049-.027.032-.037.046-.031.037-.053.065-.041.05-.027.031-.041.05-.023.028-.043.053-.021.026-.049.059-.016.02-.058.071a.033.033,0,0,0-.007.009l-.206.249,0,0-.067.082,0,0c-.469.568-.933,1.127-1.407,1.692Zm6.382-6.269Zm8.212-12.672.032-.046v.069Zm-480.933-8.525,0,0-.178-.274,0,0-.052-.081-.013-.021-.045-.069-.013-.019-.044-.069-.014-.021-.049-.077-.006-.01c-.04-.062-.075-.115-.114-.176l-.015-.024-.04-.061-.022-.034c-.011-.015-.023-.036-.033-.051s-.016-.023-.023-.036-.021-.032-.031-.048-.019-.028-.028-.042-.021-.033-.026-.041l-.029-.044-.025-.041-.055-.086c-.011-.015-.016-.024-.026-.04l-.031-.048c-.005-.007-.018-.027-.022-.035s-.021-.034-.033-.051l-.022-.034-.033-.051-.019-.03-.036-.056-.015-.024-.134-.208-.006-.011-.038-.059c-.005-.007-.011-.018-.017-.025l-.037-.059-.016-.024c-.013-.02-.025-.039-.037-.058l-.014-.023-.042-.064,0-.007-.146-.229,0,0-.044-.069-.009-.013-.041-.064-.014-.023-.039-.061-.011-.017-.043-.068,0,0c-.05-.077-.1-.155-.148-.232l0,0-.041-.067c-.006-.007-.006-.01-.012-.018l-.04-.063-.014-.021c-.011-.021-.025-.041-.038-.06l-.014-.023-.182-.288-.011-.017-.039-.06-.014-.023-.037-.058-.018-.029-.034-.054-.02-.031-.033-.053-.019-.03-.12-.191c0-.007-.012-.021-.018-.028l-.03-.049-.026-.041c-.009-.014-.019-.03-.028-.045l-.026-.041-.028-.044c-.009-.015-.017-.028-.027-.043l-.027-.043-.038-.06-.014-.023-.053-.085-.022-.034-.032-.053c-.009-.013-.017-.026-.025-.039l-.029-.047-.025-.04-.032-.051c-.006-.012-.014-.022-.021-.033l-.038-.06-.016-.026-.112-.179,0-.005-.052-.084c0-.005-.006-.01-.009-.014l-.048-.077-.009-.015c-.02-.031-.031-.049-.05-.08l-.005-.008-.055-.089,0,0c-.318-.512-.629-1.018-.943-1.533l.853-.521c2.069,3.384,4.239,6.773,6.448,10.071l-.831.556C3006.362,750.709,3005.693,749.7,3005.035,748.688Zm472.419-337.339.787-.616q3.637,4.643,7.086,9.435l.012.017.04.055.022.031.034.048.009.013-.813.583C3482.316,417.692,3479.9,414.473,3477.454,411.349Zm-15.5-18.205.733-.68q1.812,1.958,3.586,3.949l.008.009.052.058.017.02.047.051.021.024.043.049.03.032.037.041c.023.028.037.041.061.069l.023.027.048.054.022.024.048.054.022.024.049.056.018.02.056.063.012.014c1.273,1.436,2.521,2.874,3.765,4.335l-.761.648C3467.317,399.065,3464.646,396.057,3461.952,393.143Zm-16.942-16.875.676-.737q2.279,2.091,4.513,4.231l0,0,.319.307.023.022.042.04.035.033.036.035.039.037.034.032.047.046.025.023.149.145.009.008.067.065.013.013.066.064.008.007.074.071v0q1.6,1.544,3.17,3.109l-.706.708C3450.842,381.731,3447.934,378.951,3445.01,376.268Zm-18.266-15.43.613-.79q1.628,1.265,3.236,2.551l0,0,0,0,.066.053.009.007.067.054,0,0,0,0,.354.284.013.01.059.048.019.015.058.047a.113.113,0,0,1,.016.014l.061.049.006,0,.213.173h0l.06.049.019.015.055.044.022.019.054.043.023.019.054.044.02.016.184.148.022.018.052.042.026.021.049.04.028.023.051.04.025.021.051.042.021.017.187.152.017.014.05.041a.353.353,0,0,1,.029.023l.05.04.025.021.053.043.023.019.052.043a.308.308,0,0,1,.025.021c.018.014.035.028.052.042l.009.007.124.1.014.012.052.041.028.023.045.036.034.029.045.037.031.025.047.039.029.023.051.041h0l0,0,.119.1.023.018.047.039.033.027.043.035c.013.012.021.018.035.029l.042.035.037.031.041.034.037.03.042.035.039.031c.025.021.049.041.075.061l.038.032.04.032.04.033.035.029.046.039.031.025.054.045.023.019.064.053.016.013.163.135.006,0,.075.064.01.008.072.059.012.009c.637.529,1.266,1.057,1.9,1.59l-.646.764C3433,365.8,3429.877,363.272,3426.744,360.838Zm6.7,4.067h0Zm-26.169-17.946.547-.838q4.609,3.008,9.1,6.187l0,0,.083.059.01.007.075.054.014.009.079.056.007.005.086.061.022.015.058.041.043.032.036.025.054.039.022.016.06.042.015.011.143.1-.581.814C3413.919,351.393,3410.595,349.126,3407.272,346.958Zm-20.545-12.23.475-.88q3.448,1.864,6.833,3.815h0l.093.053,0,0,.375.217.01.006.08.046.018.011.076.044.014.008.087.05,0,0,.185.108.018.01.073.042.023.014.064.037.031.018.058.033.035.021.05.029.041.023.044.026.092.053.033.019.055.032.031.018.056.032.03.017.06.036.019.011q.923.54,1.843,1.088l-.512.859C3393.716,338.6,3390.216,336.614,3386.727,334.728Zm-21.487-10.493.4-.916q4.953,2.169,9.814,4.519l.015.007.075.036.03.014.061.03.035.017.057.028.039.018.051.025.2.1.006,0,.078.038.007,0,.081.039h0l.336.164-.438.9C3372.526,327.517,3368.875,325.827,3365.24,324.235Zm-237.1.972.251-.114.008,0,.075-.034.019-.009.069-.031.022-.011.2-.091.043-.02.047-.021.049-.023.042-.019.053-.024.042-.019.058-.026.033-.015.079-.036.014-.006.2-.088.01,0,.092-.041.006,0,.1-.043,0,0q3.831-1.724,7.711-3.338l.016-.006.081-.034.021-.009.076-.031.023-.009.079-.033.019-.008.094-.039.037-.015.055-.023.053-.022.038-.015.062-.026.025-.011.069-.028.013-.005q.517-.213,1.033-.424l.378.925c-3.674,1.5-7.366,3.1-10.977,4.746Zm214.821-9.647.324-.946c.808.276,1.607.553,2.412.837l.021.007.079.028.025.009.074.026.029.01.078.028.021.007.2.07.036.013.059.021.046.016.05.018.051.018.04.014.06.021.024.008.226.081.024.009.071.025.018.006.077.028.011,0q2.423.867,4.826,1.775l.007,0,.069.026.028.011.063.023.034.013.057.022.044.017.051.019.091.035.019.007.08.03.025.01.079.031.016.005.088.034.011,0c.657.25,1.3.5,1.953.752l-.363.932C3350.493,318.227,3346.715,316.844,3342.961,315.56Zm-192.6.585.467-.168.011,0,.088-.031.02-.007.078-.028.024-.009.084-.03.016-.006.1-.033.047-.017.047-.016.057-.021.036-.013.065-.023.024-.008.071-.025.013,0q5.022-1.783,10.128-3.387l.3.954c-3.785,1.188-7.6,2.473-11.331,3.818Zm169.679-7.382.245-.97c3.885.978,7.752,2.038,11.573,3.172l-.284.958C3327.764,310.8,3323.885,309.732,3320.035,308.763Zm-146.787.194.043-.012.084-.022.059-.016.047-.013.054-.014.046-.013.055-.014.047-.013.059-.015.04-.011.09-.024.023-.006.088-.023.028-.007.072-.019.036-.01.068-.018.034-.009.075-.02.025-.006.206-.055.021-.005.083-.022.022-.005.084-.022.022-.006.094-.025.007,0,.213-.056.011,0,.092-.023.021-.005.086-.022.02-.005.094-.024.008,0,.211-.055.014,0,.091-.023.018,0,.086-.022.02-.005.1-.026.214-.056.012,0,.09-.023.024-.006.083-.021.021-.005.1-.024.007,0,.209-.054.022-.005.083-.022.023-.005.083-.022.022-.005.087-.022.017,0,.1-.026.017,0,.087-.022.026-.007.075-.019.032-.008.072-.018.033-.008.076-.02.024-.006.1-.025.016,0,.084-.021.039-.01.061-.015.044-.012.056-.013.048-.012.057-.014.042-.011.1-.024.042-.01.059-.014.053-.013.042-.011.059-.014.042-.011.057-.014.041-.01.06-.014h.005l.158-.039.021-.005.071-.018.027-.006.067-.017.031-.007.071-.018.011,0q.175-.045.352-.086l.006,0,.087-.022h0q2.64-.647,5.3-1.244l.219.976c-3.873.87-7.78,1.834-11.611,2.865Zm5.441-1.407h0Zm0,0h0Zm117.939-3.659.163-.986q2.225.367,4.437.769l.014,0,.084.015h0l.257.047.023,0,.066.012.036.007.061.011.044.008.056.01.062.012.037.007.1.018.034.006.072.013.034.006.073.013.031.005.088.016.014,0q3.1.575,6.17,1.214l-.2.979C3304.5,305.276,3300.545,304.539,3296.628,303.891Zm-99.972-.2.031-.005.034-.006.071-.013.034-.006.082-.015.022,0,.1-.018.04-.007.063-.012.045-.008.058-.01.049-.009.055-.01.047-.008.055-.01.1-.018.041-.007.06-.011.04-.007.06-.01.044-.008.059-.011.038-.006.128-.022.026-.005.054-.009.05-.009.056-.01.044-.007.058-.011.044-.007.059-.011.051-.009.084-.014.058-.01.054-.01.05-.008.053-.009.049-.009.052-.009.054-.01.05-.008.094-.016.043-.008.06-.01.047-.008.056-.01.051-.008.055-.01.045-.008.074-.013.03,0,.1-.018.028,0,.074-.013.04-.007.067-.011.038-.006.076-.014.026,0,.106-.018.1-.017.031-.005.076-.013.029-.005.083-.013.023,0,.1-.017h0l.111-.019h.005l.1-.017.015,0,.093-.015.017,0,.1-.017h0q3.752-.624,7.539-1.151l.138.991c-3.933.547-7.906,1.184-11.807,1.894Zm76.241-2.724.081-1q2.032.165,4.054.359h0l.112.011h0l.452.044h.012l.1.01h.013l.224.022h0l.1.01.021,0,.092.009.018,0,.1.01h.011l.219.022.025,0,.083.009.03,0,.078.008.031,0,.214.022.023,0,.082.008.034,0,.072.007.038,0,.081.008.023,0,.1.011.04,0,.066.007.045,0,.059.006.048,0,.062.007.043,0,.078.008.069.007.052.005.056.006.049,0,.058.006.043,0,.06.007.038,0,.128.014.03,0,.068.007.031,0,.071.007.028,0,.075.008h.014l.264.029h.006l.083.009.014,0,.084.009h.008q1.858.205,3.709.432l-.122.993C3280.855,301.7,3276.854,301.293,3272.9,300.97Zm-52.474-.585.733-.07.013,0,.074-.007.031,0,.065-.006.043,0,.06-.005.072-.007.055-.005.077-.007.033,0,.076-.007.032,0,.087-.008.017,0,.337-.031h.005q4.139-.378,8.308-.638l.111-.007h.01l.109-.006h0l.218-.013.038,0,.066,0,.049,0,.051,0,.058,0,.029,0,.155-.009h.008l.084,0h.013l.087-.005h0l.749-.043.057,1c-3.965.223-7.976.532-11.92.916ZM3249,300c-1.53,0-3.081.012-4.61.036l-.015-1c1.026-.016,2.063-.027,3.092-.032l.447,0h3.31c.083,0,.158,0,.241,0h.229l.243,0h.114l.12,0,.239,0,.112,0h.121c.081,0,.157,0,.238,0h0l.121,0,.464.006h0l.468.007.469.008,1.4.029h0l.461.011.118,0h.007l.231.006.11,0h.016l.1,0h.011l.228.005h.012l.1,0h.024l.09,0h.021l.106,0h0l.111,0h.024l.084,0h.033l.077,0,.122,0h.02l.105,0h.035l.068,0,.1,0,.053,0,.051,0,.108,0h.04l.065,0h.037l.067,0,.035,0,.068,0h.025l.253.008h.011l.084,0h.012q.932.032,1.861.07l-.04,1C3257,300.081,3252.975,300,3249,300Z" transform="translate(783.282 3794.281) rotate(-90)" fill="#fffdfd"/>
  </g>
</svg>
