<svg xmlns="http://www.w3.org/2000/svg" width="117.656" height="84.809" viewBox="0 0 117.656 84.809">
  <g id="noun-signal-2308130" transform="translate(-8 -52.5)">
    <g id="Group_14285" data-name="Group 14285" transform="translate(8 52.5)">
      <path id="Path_10579" data-name="Path 10579" d="M67.013,137.309a5.862,5.862,0,0,0,5.938-5.938,6.185,6.185,0,0,0-5.938-6.31,6.5,6.5,0,0,0-6.31,6.31A6.185,6.185,0,0,0,67.013,137.309Zm58.642-58.642C94.479,43.778,39.177,43.778,8,78.666l10.021,9.65c25.61-29.321,72-29.321,97.985,0ZM80.375,123.947l8.537-8.537c-10.763-14.846-33.4-14.846-44.167,0l8.537,8.537A15.4,15.4,0,0,1,80.375,123.947ZM97.448,106.5l9.279-8.908C85.942,73.1,47.713,73.1,27.3,97.6l8.908,8.908C51.8,87.2,81.86,87.2,97.448,106.5Z" transform="translate(-8 -52.5)" fill="#fff" fill-rule="evenodd"/>
    </g>
  </g>
</svg>
