<svg xmlns="http://www.w3.org/2000/svg" width="53.334" height="54.021" viewBox="0 0 53.334 54.021">
  <g id="noun-send-4090166" transform="translate(-5.067 -4.496)">
    <path id="Path_10605" data-name="Path 10605" d="M56.845,5.393a2.435,2.435,0,0,0-2.356-.171h-.071L7.336,27.117a2.877,2.877,0,0,0-1.767,2.739c.1,1.714.589,2.745,2.857,3.6,1.7.636,9.425,3.988,11.4,4.836l2.78,18.961a.9.9,0,0,0,.689.754.964.964,0,0,0,.937-.412l8.629-13.654L50.412,51.6c1.072.442,3.151.748,4.123-.86s.889-5.3.878-5.614L57.9,8.1A3.381,3.381,0,0,0,56.845,5.393ZM9.056,31.806c-1.632-.589-1.661-1.066-1.72-2.056a1.2,1.2,0,0,1,.719-1.019L52.786,7.944,20.442,36.63C18.31,35.711,10.788,32.46,9.056,31.806Zm12.523,6.179L48.957,13.7,26.438,40.146l-2.786,12.01Zm32.079,7.127c.041,1.372-.094,3.87-.589,4.712-.436.713-1.932.159-1.938.159L32.882,42.02a.886.886,0,0,0-1.1.336L25.4,52.446l2.68-11.48L56.144,7.979Z" transform="translate(0)"/>
    <path id="Path_10605_-_Outline" data-name="Path 10605 - Outline" d="M55.511,4.5h0a2.912,2.912,0,0,1,1.609.479l.019.013A3.868,3.868,0,0,1,58.4,8.13h0L55.914,45.138c.013.386.105,4.117-.95,5.864a3.066,3.066,0,0,1-2.787,1.455,5.329,5.329,0,0,1-1.955-.391l-.009,0L33.058,44.576l-8.4,13.291a1.423,1.423,0,0,1-1.242.651c-.055,0-.11,0-.165-.008l-.029,0-.029-.006a1.4,1.4,0,0,1-1.079-1.175l-2.739-18.68-1.364-.588c-2.931-1.263-8.386-3.615-9.76-4.129-2.519-.955-3.074-2.206-3.181-4.044v-.011a3.364,3.364,0,0,1,2.066-3.215L54.307,4.722h.076A2.932,2.932,0,0,1,55.511,4.5ZM56.559,5.8A1.935,1.935,0,0,0,54.7,5.675l-.1.047h-.072l-47,21.857a2.391,2.391,0,0,0-1.457,2.253c.092,1.556.481,2.382,2.535,3.161,1.4.522,6.659,2.791,9.8,4.147l1.62.7.257.11L23.106,57.2a.4.4,0,0,0,.273.32h.037a.454.454,0,0,0,.4-.183l8.86-14.019,17.936,7.827a4.315,4.315,0,0,0,1.569.314,2.089,2.089,0,0,0,1.931-.972c.778-1.287.845-4.288.806-5.336v-.026l0-.026L57.4,8.04A2.888,2.888,0,0,0,56.559,5.8Zm.184.7L54.158,45.122c.029,1.043-.033,3.892-.658,4.956l0,.008a1.372,1.372,0,0,1-1.273.6,4.067,4.067,0,0,1-1.172-.2h-.024L32.682,42.478a.385.385,0,0,0-.478.143l-6.38,10.092-.91-.381,2.708-11.6Zm-4.1,43.064a12.33,12.33,0,0,0,.518-4.439V45.1L55.544,9.456l-27,31.741-1.979,8.478,4.8-7.586a1.392,1.392,0,0,1,1.172-.643,1.355,1.355,0,0,1,.556.118l18.225,7.953a3.165,3.165,0,0,0,.911.172C52.325,49.688,52.569,49.676,52.641,49.566ZM52.575,7.49l.542.827-32.582,28.9-.871-.375c-2.75-1.186-9.189-3.962-10.783-4.565-1.849-.668-1.978-1.349-2.046-2.5l0-.029,0-.029a1.689,1.689,0,0,1,1.015-1.448ZM20.348,36.045,49.9,9.838,8.249,29.192a.7.7,0,0,0-.412.562,1.755,1.755,0,0,0,.181.89,2.553,2.553,0,0,0,1.208.692l.007,0c1.61.608,8.07,3.394,10.828,4.583ZM48.626,13.33l.712.7L26.9,40.378,24.139,52.27l-.982-.041L21.045,37.79ZM23.764,49.464l2.215-9.549,17.97-21.1L22.113,38.18Z" transform="translate(0)"/>
  </g>
</svg>
