<svg xmlns="http://www.w3.org/2000/svg" width="69.22" height="66.5" viewBox="0 0 69.22 66.5">
  <g id="noun-switch-5896531" transform="translate(-35.993 -93.54)">
    <path id="Path_10636" data-name="Path 10636" d="M119.975,235.627c1.566,1.566,1.566,6.134,1.566,13.7a2.047,2.047,0,1,0,4.093,0c0-9.21,0-13.834-2.763-16.6s-7.387-2.763-16.6-2.763-13.834,0-16.6,2.763-2.763,7.387-2.763,16.6a2.047,2.047,0,1,0,4.093,0c0-7.571,0-12.139,1.566-13.7s6.134-1.566,13.7-1.566,12.139,0,13.7,1.566Z" transform="translate(-50.917 -108.506)"/>
    <path id="Path_10637" data-name="Path 10637" d="M339.146,232.733c-2.763-2.763-7.387-2.763-16.6-2.763a2.047,2.047,0,1,0,0,4.093c7.571,0,12.139,0,13.7,1.566s1.566,6.134,1.566,13.7a2.047,2.047,0,1,0,4.093,0c0-9.21,0-13.834-2.763-16.6Z" transform="translate(-236.698 -108.507)"/>
    <path id="Path_10638" data-name="Path 10638" d="M189.445,345.4c0-.033-.008-.065-.012-.1s-.008-.063-.014-.1a1.035,1.035,0,0,0-.025-.109c-.006-.029-.014-.055-.02-.084s-.023-.072-.035-.106-.018-.055-.031-.082a1.024,1.024,0,0,0-.043-.1c-.014-.029-.027-.057-.041-.086s-.031-.055-.047-.084l-.055-.092-.049-.072-.068-.092c-.018-.023-.037-.043-.055-.063s-.049-.057-.076-.084l-.068-.065c-.025-.025-.051-.047-.078-.07s-.057-.047-.088-.07l-.051-.041-.018-.012c-.035-.025-.07-.045-.1-.068s-.045-.029-.068-.041-.074-.037-.111-.055-.047-.025-.072-.035l-.106-.041c-.029-.01-.055-.023-.084-.031s-.063-.018-.1-.027-.065-.018-.1-.025-.057-.01-.086-.014-.076-.012-.115-.016l-.082-.006c-.041,0-.082-.006-.121-.006h-10.3a2.047,2.047,0,1,0,0,4.093h5.866a24.591,24.591,0,0,1-37.4-3.23,2.046,2.046,0,0,0-3.338,2.368,28.68,28.68,0,0,0,43.1,4.265v4.828a2.047,2.047,0,1,0,4.093,0V345.577c0-.02,0-.041,0-.063a1.116,1.116,0,0,0-.006-.117Z" transform="translate(-94.635 -198.824)"/>
    <path id="Path_10639" data-name="Path 10639" d="M137.357,116.054A11.257,11.257,0,1,0,126.1,104.8,11.269,11.269,0,0,0,137.357,116.054Zm0-18.421a7.164,7.164,0,1,1-7.164,7.164A7.171,7.171,0,0,1,137.357,97.633Z" transform="translate(-82.086)"/>
    <path id="Path_10640" data-name="Path 10640" d="M312.9,135.142a8.8,8.8,0,1,0-8.8-8.8A8.811,8.811,0,0,0,312.9,135.142Zm0-13.508a4.707,4.707,0,1,1-4.707,4.707A4.713,4.713,0,0,1,312.9,121.633Z" transform="translate(-223.654 -19.088)"/>
  </g>
</svg>
