<svg id="instagram-black" xmlns="http://www.w3.org/2000/svg" width="35.655" height="35.654" viewBox="0 0 35.655 35.654">
  <g id="Group_1125" data-name="Group 1125">
    <path id="Path_432" data-name="Path 432" d="M517.827,160c-4.842,0-5.449.021-7.35.107a13.083,13.083,0,0,0-4.327.829,9.115,9.115,0,0,0-5.214,5.214,13.082,13.082,0,0,0-.829,4.327c-.087,1.9-.107,2.509-.107,7.35s.021,5.449.107,7.35a13.082,13.082,0,0,0,.829,4.327,9.116,9.116,0,0,0,5.214,5.214,13.086,13.086,0,0,0,4.327.829c1.9.087,2.509.107,7.35.107s5.449-.021,7.35-.107a13.085,13.085,0,0,0,4.327-.829,9.116,9.116,0,0,0,5.214-5.214,13.085,13.085,0,0,0,.829-4.327c.087-1.9.107-2.509.107-7.35s-.021-5.449-.107-7.35a13.085,13.085,0,0,0-.829-4.327,9.115,9.115,0,0,0-5.214-5.214,13.083,13.083,0,0,0-4.327-.829C523.276,160.021,522.669,160,517.827,160Zm0,3.212c4.76,0,5.324.018,7.2.1a9.863,9.863,0,0,1,3.31.614,5.9,5.9,0,0,1,3.383,3.383,9.863,9.863,0,0,1,.614,3.31c.086,1.88.1,2.444.1,7.2s-.018,5.324-.1,7.2a9.863,9.863,0,0,1-.614,3.31,5.9,5.9,0,0,1-3.383,3.383,9.863,9.863,0,0,1-3.31.614c-1.88.086-2.443.1-7.2.1s-5.324-.018-7.2-.1a9.863,9.863,0,0,1-3.31-.614,5.9,5.9,0,0,1-3.383-3.383,9.863,9.863,0,0,1-.614-3.31c-.086-1.88-.1-2.444-.1-7.2s.018-5.324.1-7.2a9.863,9.863,0,0,1,.614-3.31,5.9,5.9,0,0,1,3.383-3.383,9.863,9.863,0,0,1,3.31-.614C512.5,163.23,513.067,163.212,517.827,163.212Zm0,5.461a9.155,9.155,0,1,0,9.155,9.155A9.155,9.155,0,0,0,517.827,168.673Zm0,15.1a5.942,5.942,0,1,1,5.942-5.942A5.942,5.942,0,0,1,517.827,183.77Zm11.656-15.459a2.139,2.139,0,1,1-2.139-2.139A2.139,2.139,0,0,1,529.483,168.311Z" transform="translate(-500 -160)" fill="#7c7c7c" fill-rule="evenodd"/>
  </g>
</svg>
