<svg id="linkedin-black" xmlns="http://www.w3.org/2000/svg" width="32.683" height="29.712" viewBox="0 0 32.683 29.712">
  <g id="Group_1126" data-name="Group 1126">
    <path id="Path_433" data-name="Path 433" d="M734.683,294.712H727.46V284.267c0-2.734-1.13-4.6-3.615-4.6a3.645,3.645,0,0,0-3.449,2.473,4.6,4.6,0,0,0-.156,1.65v10.923h-7.156s.092-18.5,0-20.184h7.156V277.7c.423-1.385,2.709-3.362,6.359-3.362,4.527,0,8.084,2.9,8.084,9.155v11.223ZM705.847,272H705.8a3.521,3.521,0,0,1-3.8-3.5c0-1.994,1.539-3.5,3.891-3.5a3.537,3.537,0,0,1,3.841,3.5c0,1.956-1.491,3.5-3.885,3.5Zm-3.023,2.525h6.37v20.184h-6.37V274.528Z" transform="translate(-702 -265)" fill="#7c7c7c" fill-rule="evenodd"/>
  </g>
</svg>
