<svg id="Group_14302" data-name="Group 14302" xmlns="http://www.w3.org/2000/svg" width="39.83" height="38.052" viewBox="0 0 39.83 38.052">
  <path id="Path_10593" data-name="Path 10593" d="M4.448,0H35.382A4.488,4.488,0,0,1,39.83,4.448V27.5a4.422,4.422,0,0,1-4.448,4.448H16.074L7.481,37.909A1.024,1.024,0,0,1,5.964,37V31.945H4.448A4.422,4.422,0,0,1,0,27.5V4.448A4.488,4.488,0,0,1,4.448,0ZM35.382,2.022H4.448A2.46,2.46,0,0,0,2.022,4.448V27.5a2.4,2.4,0,0,0,2.426,2.426H6.874a1.107,1.107,0,0,1,1.112,1.011v4.145l7.178-4.953a1.437,1.437,0,0,1,.607-.2H35.382A2.4,2.4,0,0,0,37.808,27.5V4.448A2.4,2.4,0,0,0,35.382,2.022Z"/>
  <path id="Path_10594" data-name="Path 10594" d="M63.011,92.022A1.013,1.013,0,0,1,62,91.011.955.955,0,0,1,63.011,90H84.442a.955.955,0,0,1,1.011,1.011,1.013,1.013,0,0,1-1.011,1.011Z" transform="translate(-55.732 -80.902)"/>
  <path id="Path_10595" data-name="Path 10595" d="M63.011,150.022A.955.955,0,0,1,62,149.011,1.013,1.013,0,0,1,63.011,148H88.284a1.013,1.013,0,0,1,1.011,1.011.955.955,0,0,1-1.011,1.011Z" transform="translate(-55.732 -133.038)"/>
  <path id="Path_10596" data-name="Path 10596" d="M63.011,209.022A1.013,1.013,0,0,1,62,208.011.955.955,0,0,1,63.011,207H84.442a.955.955,0,0,1,1.011,1.011,1.013,1.013,0,0,1-1.011,1.011Z" transform="translate(-55.732 -186.074)"/>
</svg>
