<svg xmlns="http://www.w3.org/2000/svg" width="61.401" height="69.264" viewBox="0 0 61.401 69.264">
  <g id="noun-document-5896457" transform="translate(-81.32 -58.94)">
    <path id="Path_10641" data-name="Path 10641" d="M103.3,329.573a1.757,1.757,0,0,0-2.485,2.485l6.067,6.067h-23.8a1.757,1.757,0,1,0,0,3.515h23.949l-6.211,6.211a1.757,1.757,0,1,0,2.485,2.485l9.139-9.139a1.759,1.759,0,0,0,0-2.485Z" transform="translate(0 -222.646)"/>
    <path id="Path_10642" data-name="Path 10642" d="M138.872,62.979c-4.126-4.039-11.611-4.039-26.525-4.039s-22.4,0-26.525,4.039C81.68,67.033,81.68,74.372,81.68,88.992c0,8.016,0,13.806.663,18.052a1.759,1.759,0,0,0,1.735,1.487,1.835,1.835,0,0,0,.274-.021,1.757,1.757,0,0,0,1.466-2.007c-.62-3.975-.62-9.652-.62-17.509,0-13.207,0-20.481,3.086-23.5,3.1-3.035,10.548-3.035,24.066-3.035s20.966,0,24.066,3.035c3.086,3.019,3.086,10.3,3.086,23.5,0,11.915,0,19.107-2.285,22.532-1.931,2.894-5.815,3.822-16.629,3.972a1.758,1.758,0,0,0,.025,3.515h.025c10.812-.149,16.488-1.016,19.5-5.534,2.877-4.311,2.877-11.476,2.877-24.483,0-14.622,0-21.961-4.142-26.014Z" transform="translate(-0.297)"/>
    <path id="Path_10643" data-name="Path 10643" d="M162.737,134.455h30.7a1.757,1.757,0,0,0,0-3.515h-30.7a1.757,1.757,0,1,0,0,3.515Z" transform="translate(-65.66 -59.346)"/>
    <path id="Path_10644" data-name="Path 10644" d="M178.51,203.94H162.747a1.757,1.757,0,1,0,0,3.515H178.51a1.757,1.757,0,1,0,0-3.515Z" transform="translate(-65.669 -119.517)"/>
  </g>
</svg>
