<svg xmlns="http://www.w3.org/2000/svg" width="28" height="18.005" viewBox="0 0 28 18.005">
  <g id="noun-eye-4695883" transform="translate(-2 -6.997)">
    <g id="Layer_2" data-name="Layer 2">
      <path id="Path_10601" data-name="Path 10601" d="M29.911,15.588A15.112,15.112,0,0,0,16,7,15.112,15.112,0,0,0,2.089,15.588a1,1,0,0,0,0,.824A15.112,15.112,0,0,0,16,25a15.112,15.112,0,0,0,13.911-8.588A1,1,0,0,0,29.911,15.588ZM16,23A13.163,13.163,0,0,1,4.107,16,13.163,13.163,0,0,1,16,9a13.163,13.163,0,0,1,11.893,7A13.163,13.163,0,0,1,16,23Z" fill="#c1c1c1"/>
      <path id="Path_10602" data-name="Path 10602" d="M16,11a5,5,0,1,0,5,5A5,5,0,0,0,16,11Zm0,8a3,3,0,1,1,3-3A3,3,0,0,1,16,19Z" fill="#c1c1c1"/>
    </g>
  </g>
</svg>
