<svg xmlns="http://www.w3.org/2000/svg" width="72.5" height="55.15" viewBox="0 0 72.5 55.15">
  <g id="noun-payment-5896509" transform="translate(-63.21 -109.34)">
    <path id="Path_10628" data-name="Path 10628" d="M120.92,237.84a1.88,1.88,0,1,0,0,3.761h13.215a1.88,1.88,0,1,0,0-3.761Z" transform="translate(-45.332 -104.338)"/>
    <path id="Path_10629" data-name="Path 10629" d="M109.267,157.11c-3.294.081-7.123.081-11.555.081-13.785,0-22.107,0-26.1-2.608-3.379-2.2-4.464-6.6-4.639-18.826v-1.222c.019-1.371.051-2.642.1-3.823h61.3c.045,1.181.075,2.452.1,3.823v1.222c-.013.872-.028,1.662-.047,2.416a1.881,1.881,0,1,0,3.761.1c.021-.773.036-1.583.049-2.475v-1.3c-.028-2.04-.083-3.913-.173-5.643v-.021a1.739,1.739,0,0,0-.015-.222c-.466-8.431-1.89-13.266-6.158-16.05-4.934-3.217-13.183-3.217-28.16-3.217s-23.224,0-28.158,3.217c-4.27,2.785-5.694,7.619-6.158,16.05a1.735,1.735,0,0,0-.015.222v.021c-.09,1.728-.145,3.6-.173,5.641v1.3c.173,12.171,1.166,18.559,6.344,21.936,4.934,3.217,13.183,3.217,28.16,3.217,4.458,0,8.307,0,11.647-.083a1.881,1.881,0,1,0-.094-3.761Zm-37.659-41.4c4-2.608,12.32-2.608,26.1-2.608s22.107,0,26.1,2.608c2.561,1.67,3.8,4.6,4.332,11.242H67.277c.528-6.639,1.771-9.571,4.332-11.242Z" transform="translate(0 0)"/>
    <path id="Path_10630" data-name="Path 10630" d="M356.062,290.83a1.879,1.879,0,0,0-2,1.751,16.708,16.708,0,0,1-15.55,15.513,1.88,1.88,0,0,0,.118,3.757c.041,0,.081,0,.122,0a20.476,20.476,0,0,0,19.061-19.014,1.881,1.881,0,0,0-1.751-2Z" transform="translate(-222.105 -147.36)"/>
    <path id="Path_10631" data-name="Path 10631" d="M343.214,284.91a1.88,1.88,0,0,0-3.761,0,8.383,8.383,0,0,1-8.373,8.373,1.88,1.88,0,0,0,0,3.761A12.148,12.148,0,0,0,343.214,284.91Z" transform="translate(-215.975 -141.031)"/>
  </g>
</svg>
