<svg xmlns="http://www.w3.org/2000/svg" width="107.068" height="107.068" viewBox="0 0 107.068 107.068">
  <g id="noun-question-4872964" transform="translate(-9 -9)">
    <path id="Path_10578" data-name="Path 10578" d="M80.908,43.434A18.5,18.5,0,0,1,67.144,61.951a2.629,2.629,0,0,0-1.983,2.536v3.3a2.627,2.627,0,0,1-5.253,0v-3.3a7.879,7.879,0,0,1,5.923-7.623,13.136,13.136,0,0,0-2.783-25.842A13.134,13.134,0,0,0,49.4,44.147a2.627,2.627,0,0,1-5.253,0,18.387,18.387,0,0,1,19.1-18.373A18.452,18.452,0,0,1,80.908,43.434ZM62.534,75.668a2.627,2.627,0,1,0,2.627,2.627A2.626,2.626,0,0,0,62.534,75.668Zm52.534-31.521V62.534A34.186,34.186,0,0,1,80.921,96.681H64.935L47.318,114.3a2.626,2.626,0,0,1-4.484-1.857V96.656A34.191,34.191,0,0,1,10,62.534V44.147A34.186,34.186,0,0,1,44.147,10H80.921A34.186,34.186,0,0,1,115.068,44.147Zm-5.253,0A28.926,28.926,0,0,0,80.921,15.253H44.147A28.926,28.926,0,0,0,15.253,44.147V62.534A28.926,28.926,0,0,0,44.147,91.428h1.313a2.628,2.628,0,0,1,2.627,2.627V106.1l13.9-13.9a2.628,2.628,0,0,1,1.857-.77H80.921a28.926,28.926,0,0,0,28.894-28.894Z" fill="#fff"/>
    <path id="Path_10578_-_Outline" data-name="Path 10578 - Outline" d="M44.147,9H80.921a35.187,35.187,0,0,1,35.147,35.147V62.534A35.187,35.187,0,0,1,80.921,97.681H65.349L48.025,115.006a3.626,3.626,0,0,1-6.191-2.564V97.606A34.776,34.776,0,0,1,29.6,94.528,35.142,35.142,0,0,1,9,62.534V44.147A35.187,35.187,0,0,1,44.147,9ZM80.921,95.681a33.185,33.185,0,0,0,33.147-33.147V44.147A33.185,33.185,0,0,0,80.921,11H44.147A33.185,33.185,0,0,0,11,44.147V62.534A33.155,33.155,0,0,0,42.872,95.657l.962.037v16.748a1.626,1.626,0,0,0,2.777,1.15l17.91-17.91ZM44.147,14.253H80.921a29.928,29.928,0,0,1,29.894,29.894V62.534A29.928,29.928,0,0,1,80.921,92.428H63.848a1.638,1.638,0,0,0-1.15.477l-15.61,15.609V94.055a1.629,1.629,0,0,0-1.627-1.627H44.147A29.928,29.928,0,0,1,14.253,62.534V44.147A29.928,29.928,0,0,1,44.147,14.253ZM80.921,90.428a27.925,27.925,0,0,0,27.894-27.894V44.147A27.925,27.925,0,0,0,80.921,16.253H44.147A27.925,27.925,0,0,0,16.253,44.147V62.534A27.925,27.925,0,0,0,44.147,90.428h1.313a3.631,3.631,0,0,1,3.627,3.627v9.631l12.2-12.195a3.652,3.652,0,0,1,2.564-1.062ZM62.535,24.761c.249,0,.5,0,.751.014a19.389,19.389,0,0,1,4.108,38.144,1.629,1.629,0,0,0-1.233,1.568v3.3a3.627,3.627,0,0,1-7.253,0v-3.3A8.879,8.879,0,0,1,65.581,55.9,12.209,12.209,0,0,0,74.658,43.67,12.34,12.34,0,0,0,63.01,32.022c-.161-.006-.324-.009-.484-.009A12.134,12.134,0,0,0,50.4,44.147a3.627,3.627,0,0,1-7.253,0A19.338,19.338,0,0,1,62.535,24.761Zm0,44.653a1.629,1.629,0,0,0,1.627-1.627v-3.3a3.629,3.629,0,0,1,2.733-3.5,17.389,17.389,0,0,0-3.683-34.209c-.224-.008-.452-.013-.676-.013A17.386,17.386,0,0,0,45.147,44.147a1.627,1.627,0,0,0,3.253,0A14.134,14.134,0,0,1,62.526,30.013c.186,0,.374,0,.56.011A14.339,14.339,0,0,1,76.657,43.595,14.22,14.22,0,0,1,66.081,57.833a6.88,6.88,0,0,0-5.173,6.655v3.3A1.629,1.629,0,0,0,62.534,69.414Zm0,5.253a3.627,3.627,0,1,1-3.627,3.627A3.631,3.631,0,0,1,62.534,74.668Zm0,5.253a1.627,1.627,0,1,0-1.627-1.627A1.629,1.629,0,0,0,62.534,79.921Z" fill="#fff"/>
  </g>
</svg>
