<svg id="noun-note-3107217" xmlns="http://www.w3.org/2000/svg" width="42.65" height="48.9" viewBox="0 0 42.65 48.9">
  <g id="Layer_2" data-name="Layer 2">
    <g id="Layer_1" data-name="Layer 1">
      <path id="Path_10632" data-name="Path 10632" d="M33.66,0H9A9,9,0,0,0,0,9V39.9a9,9,0,0,0,9,9H24.56A12.62,12.62,0,0,0,34,44.64l5.49-6.21a12.59,12.59,0,0,0,3.16-8.35V9a9,9,0,0,0-8.99-9ZM9,45.9a6,6,0,0,1-6-6V9A6,6,0,0,1,9,3H33.66a6,6,0,0,1,6,6V30.08a9.2,9.2,0,0,1-.11,1.39,1.7,1.7,0,0,0-.46-.08H30.6a4.41,4.41,0,0,0-4.38,4.29L26,45.78a10,10,0,0,1-1.44.12Zm22.75-3.24A9.74,9.74,0,0,1,29,44.79l.2-9a1.39,1.39,0,0,1,1.38-1.36h8a9.45,9.45,0,0,1-1.38,2Z"/>
      <path id="Path_10633" data-name="Path 10633" d="M12,17.64H30.59a1.5,1.5,0,0,0,0-3H12a1.5,1.5,0,1,0,0,3Z"/>
      <path id="Path_10634" data-name="Path 10634" d="M12,24.17H30.59a1.5,1.5,0,1,0,0-3H12a1.5,1.5,0,0,0,0,3Z"/>
      <path id="Path_10635" data-name="Path 10635" d="M19.86,27.7H12a1.5,1.5,0,0,0,0,3h7.85a1.5,1.5,0,0,0,0-3Z"/>
    </g>
  </g>
</svg>
