<svg xmlns="http://www.w3.org/2000/svg" width="291.457" height="221.346" viewBox="0 0 291.457 221.346">
  <g id="Group_14297" data-name="Group 14297" transform="translate(-568.939 -4377.39)">
    <path id="Path_10586" data-name="Path 10586" d="M31.767,57.705c12.394-1.887,50.953-6.087,90.89,16.236a142.562,142.562,0,0,1,54.371,54.507,142.067,142.067,0,0,1,44.51-52.008c42.844-30.313,89.1-26.284,101.686-24.771v76.813c-63.552-.187-113.825,23.445-145.89,80.842-31.963-57.159-81.828-80.876-145.567-80.808Z" transform="translate(537.172 4326.774)" fill="#fff"/>
    <path id="Path_10591" data-name="Path 10591" d="M31.767,54.775a82.748,82.748,0,0,1,85.221,41.5A83.347,83.347,0,0,1,143.1,65.767c25.135-17.784,52.276-15.42,59.657-14.533V96.3c-37.284-.11-66.778,13.755-85.59,47.428-18.752-33.534-48.007-47.448-85.4-47.408Z" transform="translate(597.405 4455.009)" fill="#a2d4f8"/>
  </g>
</svg>
