<svg xmlns="http://www.w3.org/2000/svg" width="33.354" height="30.872" viewBox="0 0 33.354 30.872">
  <g id="noun-support-1714977" transform="translate(0 0)">
    <g id="Group_14315" data-name="Group 14315" transform="translate(0 0)">
      <g id="Group_14308" data-name="Group 14308" transform="translate(0 10.371)">
        <g id="Group_14307" data-name="Group 14307">
          <path id="Path_10597" data-name="Path 10597" d="M104.106,397.029H101.3c-.113,0-.23-.008-.343,0-.166.012.069-.028.048.016a1.127,1.127,0,0,1-.158-.04c.032.012.065.028.093.04-.032-.016-.065-.032-.093-.048-.149-.073.105.125,0,0,0,0-.073-.073-.073-.077.02.028.04.053.061.081-.02-.028-.036-.061-.057-.089-.093-.137.028.162,0,0-.008-.036-.016-.069-.024-.105.016.125.02.141.016.048.012-.162,0-.331,0-.493V388.42c-.012-.178-.04.125-.008.024,0-.012.024-.129.036-.129-.012.032-.028.065-.04.093.016-.032.032-.065.048-.093.048-.073.036-.061-.032.036.024-.028.048-.052.073-.077.109-.125-.145.069,0,0,.012,0,.089-.057.093-.048-.032.012-.065.028-.093.04a.8.8,0,0,1,.105-.028c.17-.053-.178-.008,0,0h3.155c.17-.012-.069.028-.048-.016a1.135,1.135,0,0,1,.158.04c0,.032-.154-.089-.048-.016a.662.662,0,0,1,.089.057c-.093-.077-.105-.085-.04-.028l.036.036c.057.065.048.053-.028-.04a.94.94,0,0,1,.081.137c-.008.008-.053-.182-.016-.016.032.149-.032.016,0-.024v6.694c0,.594-.036,1.2,0,1.79.012.182.057-.166,0,0,0,.016-.008.036-.012.053-.028.085-.02.069.024-.044a.68.68,0,0,1-.081.137c-.016,0,.145-.145.028-.04l-.036.036c-.065.057-.053.048.04-.028a.943.943,0,0,1-.137.081c.032-.012.065-.028.093-.04a.794.794,0,0,1-.105.028c-.174.048.182-.02,0-.012a.808.808,0,0,0,0,1.616,1.831,1.831,0,0,0,1.8-1.85V389.1c0-.226,0-.452,0-.679a1.835,1.835,0,0,0-1.842-1.81c-1.006-.008-2.012,0-3.014,0a1.836,1.836,0,0,0-1.891,1.8c0,.2,0,.4,0,.6v7.748a1.836,1.836,0,0,0,1.418,1.838,7.176,7.176,0,0,0,1.382.044h2.149a.808.808,0,0,0,0-1.616Z" transform="translate(-99.156 -386.611)"/>
        </g>
      </g>
      <g id="Group_14310" data-name="Group 14310" transform="translate(26.645 10.371)">
        <g id="Group_14309" data-name="Group 14309">
          <path id="Path_10598" data-name="Path 10598" d="M763.665,397.029h-2.791c-.1,0-.214-.008-.319,0-.182.012.166.057,0,0l-.052-.012c-.085-.028-.069-.02.044.024a.68.68,0,0,1-.137-.081c.012-.032.125.125.04.028l-.036-.036c-.057-.065-.048-.053.028.04a.922.922,0,0,1-.081-.137c.012.032.028.065.04.093a.8.8,0,0,1-.028-.105c-.048-.158,0,.153,0,0s0-.343,0-.513v-7.914c-.012-.178-.061.162,0,0,0-.012.024-.105.028-.105-.024,0-.073.17.008,0,.048-.073.036-.061-.032.036.024-.028.048-.053.073-.077.109-.125-.146.069,0,0a.655.655,0,0,1,.093-.048c-.032.012-.065.028-.093.04a.8.8,0,0,1,.1-.028c.17-.053-.178-.008,0,0h3.106c.178-.012-.161-.061,0,0,.012,0,.105.024.105.028,0-.024-.17-.073,0,.008.073.048.061.036-.036-.032.028.024.052.048.077.073.125.109-.069-.145,0,0a.648.648,0,0,1,.048.093c-.012-.032-.028-.065-.041-.093a.778.778,0,0,1,.028.1c.053.17.008-.178,0,0v6.669c0,.582-.036,1.176,0,1.757.012.182.057-.166,0,0,0,.016-.008.036-.012.053-.028.085-.02.069.024-.044a.682.682,0,0,1-.081.137c-.016,0,.145-.145.028-.04l-.036.036c-.065.057-.053.048.04-.028a.95.95,0,0,1-.137.081c.032-.012.065-.028.093-.04a.805.805,0,0,1-.105.028c-.174.057.186-.012,0,0a.808.808,0,1,0,0,1.616,1.831,1.831,0,0,0,1.8-1.85V389.1c0-.226,0-.452,0-.679a1.829,1.829,0,0,0-1.83-1.81c-.994-.008-1.992,0-2.985,0a1.836,1.836,0,0,0-1.891,1.8c0,.2,0,.4,0,.6v7.74a1.833,1.833,0,0,0,1.365,1.834,6.472,6.472,0,0,0,1.4.053h2.145a.806.806,0,1,0,0-1.612Z" transform="translate(-758.756 -386.611)"/>
        </g>
      </g>
      <g id="Group_14312" data-name="Group 14312" transform="translate(12.891 25.057)">
        <g id="Group_14311" data-name="Group 14311">
          <path id="Path_10599" data-name="Path 10599" d="M422.957,754.354c-.638,0-1.289.036-1.927,0-.17-.012.012.02.02.008a.755.755,0,0,1-.109-.02c-.073-.016-.141-.036-.21-.057a.412.412,0,0,1-.1-.036s.158.077.044.016a2.571,2.571,0,0,1-.23-.129c-.012-.008-.089-.057-.089-.061s.129.113.036.028c-.052-.049-.105-.093-.154-.145-.032-.032-.061-.065-.089-.1s-.044-.109-.02-.02.012.012-.012-.024a1.05,1.05,0,0,1-.069-.113c-.024-.04-.04-.077-.065-.117s-.04-.133-.016-.024c.028.125-.032-.105-.04-.133a1.56,1.56,0,0,0-.053-.238c.012.02.012.194.008.048,0-.048,0-.093-.008-.141,0-.065,0-.129.008-.2.008-.129-.008.053-.008.048a.754.754,0,0,1,.02-.109,1.8,1.8,0,0,1,.057-.21.616.616,0,0,1,.036-.1c-.044.1-.052.125-.028.069l.036-.073c.032-.065.069-.125.1-.186a.888.888,0,0,1,.061-.089s-.113.129-.028.036c.052-.061.105-.117.162-.174.024-.024.052-.048.077-.073.125-.113-.02,0-.016.012,0-.02.182-.117.2-.129s.065-.032.093-.048c.141-.077-.02-.012-.02,0,0-.02.178-.061.206-.069l.105-.024.052-.012c.089-.016.073-.012-.052,0a1.569,1.569,0,0,1,.4-.012h.6c.335,0,.671,0,1.01,0a1.122,1.122,0,0,1,.117,0s.109,0,.113.008c-.012-.028-.182-.032-.024,0,.073.016.141.032.21.052l.1.036c.069.02-.158-.085,0,0a1.705,1.705,0,0,1,.186.105c.012.008.113.065.109.073s-.154-.133-.036-.028c.053.049.105.093.154.146.024.024.049.053.073.077s.036.04.053.061c.036.048.024.028-.044-.061.02,0,.117.182.129.2.02.04.04.081.061.117.069.129-.036-.113-.008-.02s.057.17.077.259c.008.036.012.073.02.109.024.1-.012-.178,0-.024a2.1,2.1,0,0,1,0,.226c0,.036,0,.073,0,.113-.008.186.04-.174,0,0-.02.089-.04.178-.069.263a.938.938,0,0,1-.036.1c.012,0,.089-.174,0-.02q-.061.115-.133.23c-.024.04-.04.121-.012.024.04-.053.04-.053,0,0-.016.02-.036.04-.053.061a1.634,1.634,0,0,1-.17.166.479.479,0,0,1-.081.069c.093-.073.105-.081.036-.032-.016.008-.028.02-.044.028-.077.049-.154.089-.23.129-.109.061.044-.02.044-.016a.764.764,0,0,1-.154.053c-.081.024-.158.036-.238.057-.113.028.206-.008.024,0a.459.459,0,0,1-.166.024.808.808,0,1,0,0,1.616,2.961,2.961,0,0,0,2.371-1.236,2.889,2.889,0,0,0,.432-2.432,2.937,2.937,0,0,0-1.689-1.915,3.99,3.99,0,0,0-1.6-.23c-.424,0-.848,0-1.272,0a2.906,2.906,0,0,0-2.884,3.4,2.9,2.9,0,0,0,1.41,2.024,3.666,3.666,0,0,0,1.919.388h1.317a.816.816,0,0,0,.808-.808A.83.83,0,0,0,422.957,754.354Z" transform="translate(-418.279 -750.156)"/>
        </g>
      </g>
      <g id="Group_14314" data-name="Group 14314" transform="translate(5.108 0)">
        <g id="Group_14313" data-name="Group 14313">
          <path id="Path_10600" data-name="Path 10600" d="M240.171,158.645h4.888a4.026,4.026,0,0,0,1.281-.162,3.493,3.493,0,0,0,1.992-1.652,4.339,4.339,0,0,0,.408-2.113V143.465a21.206,21.206,0,0,0-.263-4.468,11.694,11.694,0,0,0-5.231-7.4,11.574,11.574,0,0,0-9.142-1.313,11.59,11.59,0,0,0-8.451,10.24c-.057.671-.036,1.345-.036,2.016v6.193a.808.808,0,1,0,1.616,0v-7.073c0-.287,0-.57.016-.856q.018-.279.048-.557l.012-.109c.02-.194-.028.19,0,0,.012-.093.028-.182.044-.275a10.271,10.271,0,0,1,.246-1.1c.1-.355.218-.707.355-1.054.012-.032.028-.069.04-.1.069-.178-.077.17,0,0,.032-.073.065-.149.1-.222.077-.17.162-.339.25-.5.166-.315.347-.622.541-.921q.145-.224.3-.436c.036-.048.182-.291.065-.093a1.978,1.978,0,0,1,.182-.23,10.822,10.822,0,0,1,1.523-1.519,1.406,1.406,0,0,1,.21-.166c-.016.008-.149.113-.036.028.036-.028.073-.053.105-.081.149-.109.3-.218.461-.319a10.56,10.56,0,0,1,.921-.541c.158-.085.319-.162.481-.238.081-.036.162-.073.246-.109.069-.032.057-.065-.044.02a.93.93,0,0,1,.174-.073,9.775,9.775,0,0,1,1.054-.351,10.774,10.774,0,0,1,1.07-.238c.093-.016.182-.028.275-.044s.044-.044-.048.008a.512.512,0,0,1,.137-.016c.194-.02.392-.04.586-.048a10.676,10.676,0,0,1,1.079-.008c.186.008.376.02.561.036.093.008.186.02.279.028.145.016-.032-.008-.048-.008a1.725,1.725,0,0,1,.194.028,10.55,10.55,0,0,1,2.137.566l.25.1c.053.02.125.02-.044-.02.04.012.085.036.125.053q.261.115.509.242c.319.162.63.339.929.529.149.1.3.194.444.3.073.053.145.105.214.158a.428.428,0,0,1,.085.065l-.036-.028.061.048a10.646,10.646,0,0,1,.816.723,10.142,10.142,0,0,1,.723.78l.17.206c.02.028.044.057.065.085.113.141-.081-.113-.012-.016.1.153.222.3.327.456a10.017,10.017,0,0,1,.557.913c.085.158.166.315.242.477.04.081.077.162.113.242.016.032.028.065.044.1s.028.065.044.1c-.044-.1-.053-.125-.028-.069a11.319,11.319,0,0,1,.622,2.113c.016.089.032.182.048.271,0,.036.012.073.016.109,0,.02,0,.036.008.057.012.089.012.073-.008-.048a.837.837,0,0,1,.028.25c.012.1.02.206.028.307.02.267.028.533.028.8v13.771c0,.077-.008.149-.008.226-.008.194.04-.182,0,0-.008.036-.012.073-.02.109-.02.089-.044.178-.073.263-.012.044-.032.085-.044.125-.024.057-.012.032.028-.069-.016.032-.028.065-.044.1-.036.073-.077.141-.117.21-.028.044-.085.178-.133.2.02-.028.04-.053.061-.081l-.069.081c-.024.028-.048.053-.073.077s-.2.226-.234.214c.012,0,.137-.1.036-.028-.044.028-.089.061-.133.089a2.138,2.138,0,0,1-.21.117c-.02.008-.105.065-.121.057.04.02.162-.061.02-.012a2.337,2.337,0,0,1-.287.085c-.044.012-.089.02-.133.028-.085.016-.137-.024.024,0a2.253,2.253,0,0,0-.283.016h-5.138a.816.816,0,0,0-.808.808.824.824,0,0,0,.808.824Z" transform="translate(-225.613 -129.874)"/>
        </g>
      </g>
    </g>
  </g>
</svg>
