<svg id="twitter-black" xmlns="http://www.w3.org/2000/svg" width="35.655" height="29.712" viewBox="0 0 35.655 29.712">
  <g id="Group_1128" data-name="Group 1128">
    <path id="Path_435" data-name="Path 435" d="M335.655,167.517a14.289,14.289,0,0,1-4.2,1.18,7.484,7.484,0,0,0,3.217-4.148,14.407,14.407,0,0,1-4.648,1.818A7.214,7.214,0,0,0,324.684,164a7.409,7.409,0,0,0-7.312,7.5,7.654,7.654,0,0,0,.188,1.708,20.6,20.6,0,0,1-15.078-7.84,7.637,7.637,0,0,0-.99,3.775,7.55,7.55,0,0,0,3.254,6.243,7.182,7.182,0,0,1-3.315-.936v.092a7.457,7.457,0,0,0,5.87,7.355,6.976,6.976,0,0,1-1.927.264,7.106,7.106,0,0,1-1.377-.133,7.343,7.343,0,0,0,6.833,5.206,14.444,14.444,0,0,1-9.085,3.213,14.638,14.638,0,0,1-1.745-.1,20.366,20.366,0,0,0,11.213,3.367c13.457,0,20.813-11.428,20.813-21.34,0-.326-.006-.652-.019-.972a15.013,15.013,0,0,0,3.648-3.882" transform="translate(-300 -164)" fill="#7c7c7c" fill-rule="evenodd"/>
  </g>
</svg>
