<svg xmlns="http://www.w3.org/2000/svg" width="26.205" height="26.198" viewBox="0 0 26.205 26.198">
  <path id="Path_10020" data-name="Path 10020" d="M10.792,9.48l3-3.014V19.032a1.31,1.31,0,0,0,2.62,0V6.466l3,3.014a1.316,1.316,0,1,0,1.861-1.861L16.033,2.378a1.355,1.355,0,0,0-1.861,0L8.931,7.619A1.316,1.316,0,1,0,10.792,9.48Zm16.1,5.621a1.31,1.31,0,0,0-1.31,1.31v7.861a1.31,1.31,0,0,1-1.31,1.31H5.931a1.31,1.31,0,0,1-1.31-1.31V16.411a1.31,1.31,0,1,0-2.62,0v7.861A3.931,3.931,0,0,0,5.931,28.2H24.274A3.931,3.931,0,0,0,28.2,24.273V16.411A1.31,1.31,0,0,0,26.895,15.1Z" transform="translate(-2 -2.005)"/>
</svg>
