<svg xmlns="http://www.w3.org/2000/svg" width="59" height="59" viewBox="0 0 59 59">
  <g id="noun-work-4239022" transform="translate(-2.5 -2.5)">
    <path id="Path_10614" data-name="Path 10614" d="M60,11H49.414l1.293-1.293a1,1,0,0,0,0-1.414l-5-5A1.013,1.013,0,0,0,45,3H27a1,1,0,0,0,0,2H42.586l-6,6H27.414L19.707,3.293a1,1,0,0,0-1.414,0l-5,5a1,1,0,0,0,0,1.414L14.586,11H4a1,1,0,0,0-1,1v5a1,1,0,0,0,2,0V13H16.586l4.707,4.707a1,1,0,0,0,1.414,0L24.5,15.914l6.35,6.35-8.8,25.409a1,1,0,0,0,.145.927L24,51H5V23a1,1,0,1,0-2,0V52a1,1,0,0,0,1,1H25.5l5.7,7.6a1,1,0,0,0,1.6,0l9-12a1,1,0,0,0,.146-.927l-8.8-25.409,6.35-6.35,1.793,1.793a1,1,0,0,0,1.414,0L47.414,13H59V51H46a1,1,0,0,0,0,2H60a1,1,0,0,0,1-1V12A1,1,0,0,0,60,11ZM22,15.586l-4.292-4.292v0L15.414,9,19,5.414,25.586,12ZM32,58.333,24.119,47.825,32,25.057l7.881,22.768Zm0-37.748L25.914,14.5l1.5-1.5h9.172l1.5,1.5Zm10-5L38.414,12,45,5.414,48.586,9l-2.292,2.292v0Z"/>
    <path id="Path_10614_-_Outline" data-name="Path 10614 - Outline" d="M19,2.5a1.49,1.49,0,0,1,1.061.44l7.56,7.56h8.758l5-5H27a1.5,1.5,0,0,1,0-3H45a1.506,1.506,0,0,1,1.06.439l5,5a1.5,1.5,0,0,1,0,2.121l-.439.439H60A1.5,1.5,0,0,1,61.5,12V52A1.5,1.5,0,0,1,60,53.5H46a1.5,1.5,0,0,1,0-3H58.5v-37H47.621l-4.561,4.561a1.5,1.5,0,0,1-2.121,0L39.5,16.621,33.725,22.4l8.693,25.113A1.5,1.5,0,0,1,42.2,48.9l-9,12a1.5,1.5,0,0,1-2.4,0l-5.55-7.4H4A1.5,1.5,0,0,1,2.5,52V23a1.5,1.5,0,0,1,3,0V50.5H23l-1.2-1.6a1.5,1.5,0,0,1-.218-1.39L30.275,22.4,24.5,16.621l-1.439,1.439a1.5,1.5,0,0,1-2.121,0L16.379,13.5H5.5V17a1.5,1.5,0,0,1-3,0V12A1.5,1.5,0,0,1,4,10.5h9.379l-.439-.439a1.5,1.5,0,0,1,0-2.121l5-5A1.489,1.489,0,0,1,19,2.5Zm17.793,9H27.207L19.353,3.647a.5.5,0,0,0-.707,0l-5,5a.5.5,0,0,0,0,.707L15.793,11.5H4a.5.5,0,0,0-.5.5v5a.5.5,0,0,0,1,0V12.5H16.793l4.854,4.853a.5.5,0,0,0,.707,0L24.5,15.207l6.925,6.925-8.9,25.7a.5.5,0,0,0,.073.464L25,51.5H4.5V23a.5.5,0,0,0-1,0V52a.5.5,0,0,0,.5.5H25.75l5.85,7.8a.5.5,0,0,0,.8,0l9-12a.5.5,0,0,0,.073-.464l-8.9-25.7L39.5,15.207l2.147,2.146a.5.5,0,0,0,.707,0L47.207,12.5H59.5v39H46a.5.5,0,0,0,0,1H60a.5.5,0,0,0,.5-.5V12a.5.5,0,0,0-.5-.5H48.207l2.146-2.147a.5.5,0,0,0,0-.707l-5-5A.509.509,0,0,0,45,3.5H27a.5.5,0,0,0,0,1H43.793ZM19,4.707,26.293,12,22,16.293,14.707,9ZM24.879,12,19,6.121,16.121,9,22,14.879ZM45,4.707,49.293,9,42,16.293,37.707,12ZM47.879,9,45,6.121,39.121,12,42,14.879ZM27.207,12.5h9.586l2,2L32,21.293,25.207,14.5Zm9.172,1H27.621l-1,1L32,19.879,37.379,14.5ZM32,23.528l8.44,24.384L32,59.167,23.56,47.913Zm7.322,24.209L32,26.586,24.678,47.738,32,57.5Z"/>
    <path id="Path_10615" data-name="Path 10615" d="M46,26h6a1,1,0,0,0,0-2H46a1,1,0,0,0,0,2Z"/>
    <path id="Path_10615_-_Outline" data-name="Path 10615 - Outline" d="M52,26.5H46a1.5,1.5,0,0,1,0-3h6a1.5,1.5,0,0,1,0,3Zm-6-2a.5.5,0,0,0,0,1h6a.5.5,0,0,0,0-1Z"/>
  </g>
</svg>
